<?xml version="1.0" encoding="utf-8" standalone="no"?>
<!DOCTYPE svg PUBLIC "-//W3C//DTD SVG 1.1//EN"
  "http://www.w3.org/Graphics/SVG/1.1/DTD/svg11.dtd">
<svg xmlns:xlink="http://www.w3.org/1999/xlink" width="460.8pt" height="345.6pt" viewBox="0 0 460.8 345.6" xmlns="http://www.w3.org/2000/svg" version="1.1">
 <metadata>
  <rdf:RDF xmlns:dc="http://purl.org/dc/elements/1.1/" xmlns:cc="http://creativecommons.org/ns#" xmlns:rdf="http://www.w3.org/1999/02/22-rdf-syntax-ns#">
   <cc:Work>
    <dc:type rdf:resource="http://purl.org/dc/dcmitype/StillImage"/>
    <dc:date>1980-01-01T00:00:00+00:00</dc:date>
    <dc:format>image/svg+xml</dc:format>
    <dc:creator>
     <cc:Agent>
      <dc:title>Matplotlib v3.9.2, https://matplotlib.org/</dc:title>
     </cc:Agent>
    </dc:creator>
   </cc:Work>
  </rdf:RDF>
 </metadata>
 <defs>
  <style type="text/css">*{stroke-linejoin: round; stroke-linecap: butt}</style>
 </defs>
 <g id="figure_1">
  <g id="patch_1">
   <path d="M 0 345.6 
L 460.8 345.6 
L 460.8 0 
L 0 0 
z
" style="fill: #ffffff; stroke: #ffffff; stroke-linejoin: miter"/>
  </g>
  <g id="axes_1">
   <g id="patch_2">
    <path d="M 75.293188 265.977437 
L 369.9865 265.977437 
L 369.9865 4.608 
L 75.293188 4.608 
z
" style="fill: #ffffff"/>
   </g>
   <g id="matplotlib.axis_1">
    <g id="xtick_1">
     <g id="line2d_1">
      <path d="M 103.517519 265.977437 
L 103.517519 4.608 
" clip-path="url(#pfe9cd5f781)" style="fill: none; stroke: #c0c0c0; stroke-linecap: square"/>
     </g>
     <g id="line2d_2">
      <path d="M 103.517519 265.977437 
" style="fill: none; stroke: #333333; stroke-width: 1.5; stroke-linecap: square"/>
      <defs>
       <path id="m6acbca919d" d="M 0 0 
L 0 3.75 
" style="stroke: #333333"/>
      </defs>
      <g>
       <use xlink:href="#m6acbca919d" x="103.517519" y="265.977437" style="fill: #333333; stroke: #333333"/>
      </g>
     </g>
     <g id="text_1">
      <!-- 2020-07 -->
      <g style="fill: #4d4d4d" transform="translate(106.828769 321.866812) rotate(-90) scale(0.12 -0.12)">
       <defs>
        <path id="DejaVuSans-32" d="M 1228 531 
L 3431 531 
L 3431 0 
L 469 0 
L 469 531 
Q 828 903 1448 1529 
Q 2069 2156 2228 2338 
Q 2531 2678 2651 2914 
Q 2772 3150 2772 3378 
Q 2772 3750 2511 3984 
Q 2250 4219 1831 4219 
Q 1534 4219 1204 4116 
Q 875 4013 500 3803 
L 500 4441 
Q 881 4594 1212 4672 
Q 1544 4750 1819 4750 
Q 2544 4750 2975 4387 
Q 3406 4025 3406 3419 
Q 3406 3131 3298 2873 
Q 3191 2616 2906 2266 
Q 2828 2175 2409 1742 
Q 1991 1309 1228 531 
z
" transform="scale(0.015625)"/>
        <path id="DejaVuSans-30" d="M 2034 4250 
Q 1547 4250 1301 3770 
Q 1056 3291 1056 2328 
Q 1056 1369 1301 889 
Q 1547 409 2034 409 
Q 2525 409 2770 889 
Q 3016 1369 3016 2328 
Q 3016 3291 2770 3770 
Q 2525 4250 2034 4250 
z
M 2034 4750 
Q 2819 4750 3233 4129 
Q 3647 3509 3647 2328 
Q 3647 1150 3233 529 
Q 2819 -91 2034 -91 
Q 1250 -91 836 529 
Q 422 1150 422 2328 
Q 422 3509 836 4129 
Q 1250 4750 2034 4750 
z
" transform="scale(0.015625)"/>
        <path id="DejaVuSans-2d" d="M 313 2009 
L 1997 2009 
L 1997 1497 
L 313 1497 
L 313 2009 
z
" transform="scale(0.015625)"/>
        <path id="DejaVuSans-37" d="M 525 4666 
L 3525 4666 
L 3525 4397 
L 1831 0 
L 1172 0 
L 2766 4134 
L 525 4134 
L 525 4666 
z
" transform="scale(0.015625)"/>
       </defs>
       <use xlink:href="#DejaVuSans-32"/>
       <use xlink:href="#DejaVuSans-30" x="63.623047"/>
       <use xlink:href="#DejaVuSans-32" x="127.246094"/>
       <use xlink:href="#DejaVuSans-30" x="190.869141"/>
       <use xlink:href="#DejaVuSans-2d" x="254.492188"/>
       <use xlink:href="#DejaVuSans-30" x="290.576172"/>
       <use xlink:href="#DejaVuSans-37" x="354.199219"/>
      </g>
     </g>
    </g>
    <g id="xtick_2">
     <g id="line2d_3">
      <path d="M 133.501798 265.977437 
L 133.501798 4.608 
" clip-path="url(#pfe9cd5f781)" style="fill: none; stroke: #c0c0c0; stroke-linecap: square"/>
     </g>
     <g id="line2d_4">
      <path d="M 133.501798 265.977437 
" style="fill: none; stroke: #333333; stroke-width: 1.5; stroke-linecap: square"/>
      <g>
       <use xlink:href="#m6acbca919d" x="133.501798" y="265.977437" style="fill: #333333; stroke: #333333"/>
      </g>
     </g>
     <g id="text_2">
      <!-- 2021-01 -->
      <g style="fill: #4d4d4d" transform="translate(136.813048 321.866812) rotate(-90) scale(0.12 -0.12)">
       <defs>
        <path id="DejaVuSans-31" d="M 794 531 
L 1825 531 
L 1825 4091 
L 703 3866 
L 703 4441 
L 1819 4666 
L 2450 4666 
L 2450 531 
L 3481 531 
L 3481 0 
L 794 0 
L 794 531 
z
" transform="scale(0.015625)"/>
       </defs>
       <use xlink:href="#DejaVuSans-32"/>
       <use xlink:href="#DejaVuSans-30" x="63.623047"/>
       <use xlink:href="#DejaVuSans-32" x="127.246094"/>
       <use xlink:href="#DejaVuSans-31" x="190.869141"/>
       <use xlink:href="#DejaVuSans-2d" x="254.492188"/>
       <use xlink:href="#DejaVuSans-30" x="290.576172"/>
       <use xlink:href="#DejaVuSans-31" x="354.199219"/>
      </g>
     </g>
    </g>
    <g id="xtick_3">
     <g id="line2d_5">
      <path d="M 162.997203 265.977437 
L 162.997203 4.608 
" clip-path="url(#pfe9cd5f781)" style="fill: none; stroke: #c0c0c0; stroke-linecap: square"/>
     </g>
     <g id="line2d_6">
      <path d="M 162.997203 265.977437 
" style="fill: none; stroke: #333333; stroke-width: 1.5; stroke-linecap: square"/>
      <g>
       <use xlink:href="#m6acbca919d" x="162.997203" y="265.977437" style="fill: #333333; stroke: #333333"/>
      </g>
     </g>
     <g id="text_3">
      <!-- 2021-07 -->
      <g style="fill: #4d4d4d" transform="translate(166.308453 321.866812) rotate(-90) scale(0.12 -0.12)">
       <use xlink:href="#DejaVuSans-32"/>
       <use xlink:href="#DejaVuSans-30" x="63.623047"/>
       <use xlink:href="#DejaVuSans-32" x="127.246094"/>
       <use xlink:href="#DejaVuSans-31" x="190.869141"/>
       <use xlink:href="#DejaVuSans-2d" x="254.492188"/>
       <use xlink:href="#DejaVuSans-30" x="290.576172"/>
       <use xlink:href="#DejaVuSans-37" x="354.199219"/>
      </g>
     </g>
    </g>
    <g id="xtick_4">
     <g id="line2d_7">
      <path d="M 192.981481 265.977437 
L 192.981481 4.608 
" clip-path="url(#pfe9cd5f781)" style="fill: none; stroke: #c0c0c0; stroke-linecap: square"/>
     </g>
     <g id="line2d_8">
      <path d="M 192.981481 265.977437 
" style="fill: none; stroke: #333333; stroke-width: 1.5; stroke-linecap: square"/>
      <g>
       <use xlink:href="#m6acbca919d" x="192.981481" y="265.977437" style="fill: #333333; stroke: #333333"/>
      </g>
     </g>
     <g id="text_4">
      <!-- 2022-01 -->
      <g style="fill: #4d4d4d" transform="translate(196.292731 321.866812) rotate(-90) scale(0.12 -0.12)">
       <use xlink:href="#DejaVuSans-32"/>
       <use xlink:href="#DejaVuSans-30" x="63.623047"/>
       <use xlink:href="#DejaVuSans-32" x="127.246094"/>
       <use xlink:href="#DejaVuSans-32" x="190.869141"/>
       <use xlink:href="#DejaVuSans-2d" x="254.492188"/>
       <use xlink:href="#DejaVuSans-30" x="290.576172"/>
       <use xlink:href="#DejaVuSans-31" x="354.199219"/>
      </g>
     </g>
    </g>
    <g id="xtick_5">
     <g id="line2d_9">
      <path d="M 222.476886 265.977437 
L 222.476886 4.608 
" clip-path="url(#pfe9cd5f781)" style="fill: none; stroke: #c0c0c0; stroke-linecap: square"/>
     </g>
     <g id="line2d_10">
      <path d="M 222.476886 265.977437 
" style="fill: none; stroke: #333333; stroke-width: 1.5; stroke-linecap: square"/>
      <g>
       <use xlink:href="#m6acbca919d" x="222.476886" y="265.977437" style="fill: #333333; stroke: #333333"/>
      </g>
     </g>
     <g id="text_5">
      <!-- 2022-07 -->
      <g style="fill: #4d4d4d" transform="translate(225.788136 321.866812) rotate(-90) scale(0.12 -0.12)">
       <use xlink:href="#DejaVuSans-32"/>
       <use xlink:href="#DejaVuSans-30" x="63.623047"/>
       <use xlink:href="#DejaVuSans-32" x="127.246094"/>
       <use xlink:href="#DejaVuSans-32" x="190.869141"/>
       <use xlink:href="#DejaVuSans-2d" x="254.492188"/>
       <use xlink:href="#DejaVuSans-30" x="290.576172"/>
       <use xlink:href="#DejaVuSans-37" x="354.199219"/>
      </g>
     </g>
    </g>
    <g id="xtick_6">
     <g id="line2d_11">
      <path d="M 252.461164 265.977437 
L 252.461164 4.608 
" clip-path="url(#pfe9cd5f781)" style="fill: none; stroke: #c0c0c0; stroke-linecap: square"/>
     </g>
     <g id="line2d_12">
      <path d="M 252.461164 265.977437 
" style="fill: none; stroke: #333333; stroke-width: 1.5; stroke-linecap: square"/>
      <g>
       <use xlink:href="#m6acbca919d" x="252.461164" y="265.977437" style="fill: #333333; stroke: #333333"/>
      </g>
     </g>
     <g id="text_6">
      <!-- 2023-01 -->
      <g style="fill: #4d4d4d" transform="translate(255.772414 321.866812) rotate(-90) scale(0.12 -0.12)">
       <defs>
        <path id="DejaVuSans-33" d="M 2597 2516 
Q 3050 2419 3304 2112 
Q 3559 1806 3559 1356 
Q 3559 666 3084 287 
Q 2609 -91 1734 -91 
Q 1441 -91 1130 -33 
Q 819 25 488 141 
L 488 750 
Q 750 597 1062 519 
Q 1375 441 1716 441 
Q 2309 441 2620 675 
Q 2931 909 2931 1356 
Q 2931 1769 2642 2001 
Q 2353 2234 1838 2234 
L 1294 2234 
L 1294 2753 
L 1863 2753 
Q 2328 2753 2575 2939 
Q 2822 3125 2822 3475 
Q 2822 3834 2567 4026 
Q 2313 4219 1838 4219 
Q 1578 4219 1281 4162 
Q 984 4106 628 3988 
L 628 4550 
Q 988 4650 1302 4700 
Q 1616 4750 1894 4750 
Q 2613 4750 3031 4423 
Q 3450 4097 3450 3541 
Q 3450 3153 3228 2886 
Q 3006 2619 2597 2516 
z
" transform="scale(0.015625)"/>
       </defs>
       <use xlink:href="#DejaVuSans-32"/>
       <use xlink:href="#DejaVuSans-30" x="63.623047"/>
       <use xlink:href="#DejaVuSans-32" x="127.246094"/>
       <use xlink:href="#DejaVuSans-33" x="190.869141"/>
       <use xlink:href="#DejaVuSans-2d" x="254.492188"/>
       <use xlink:href="#DejaVuSans-30" x="290.576172"/>
       <use xlink:href="#DejaVuSans-31" x="354.199219"/>
      </g>
     </g>
    </g>
    <g id="xtick_7">
     <g id="line2d_13">
      <path d="M 281.956569 265.977437 
L 281.956569 4.608 
" clip-path="url(#pfe9cd5f781)" style="fill: none; stroke: #c0c0c0; stroke-linecap: square"/>
     </g>
     <g id="line2d_14">
      <path d="M 281.956569 265.977437 
" style="fill: none; stroke: #333333; stroke-width: 1.5; stroke-linecap: square"/>
      <g>
       <use xlink:href="#m6acbca919d" x="281.956569" y="265.977437" style="fill: #333333; stroke: #333333"/>
      </g>
     </g>
     <g id="text_7">
      <!-- 2023-07 -->
      <g style="fill: #4d4d4d" transform="translate(285.267819 321.866812) rotate(-90) scale(0.12 -0.12)">
       <use xlink:href="#DejaVuSans-32"/>
       <use xlink:href="#DejaVuSans-30" x="63.623047"/>
       <use xlink:href="#DejaVuSans-32" x="127.246094"/>
       <use xlink:href="#DejaVuSans-33" x="190.869141"/>
       <use xlink:href="#DejaVuSans-2d" x="254.492188"/>
       <use xlink:href="#DejaVuSans-30" x="290.576172"/>
       <use xlink:href="#DejaVuSans-37" x="354.199219"/>
      </g>
     </g>
    </g>
    <g id="xtick_8">
     <g id="line2d_15">
      <path d="M 311.940848 265.977437 
L 311.940848 4.608 
" clip-path="url(#pfe9cd5f781)" style="fill: none; stroke: #c0c0c0; stroke-linecap: square"/>
     </g>
     <g id="line2d_16">
      <path d="M 311.940848 265.977437 
" style="fill: none; stroke: #333333; stroke-width: 1.5; stroke-linecap: square"/>
      <g>
       <use xlink:href="#m6acbca919d" x="311.940848" y="265.977437" style="fill: #333333; stroke: #333333"/>
      </g>
     </g>
     <g id="text_8">
      <!-- 2024-01 -->
      <g style="fill: #4d4d4d" transform="translate(315.252098 321.866812) rotate(-90) scale(0.12 -0.12)">
       <defs>
        <path id="DejaVuSans-34" d="M 2419 4116 
L 825 1625 
L 2419 1625 
L 2419 4116 
z
M 2253 4666 
L 3047 4666 
L 3047 1625 
L 3713 1625 
L 3713 1100 
L 3047 1100 
L 3047 0 
L 2419 0 
L 2419 1100 
L 313 1100 
L 313 1709 
L 2253 4666 
z
" transform="scale(0.015625)"/>
       </defs>
       <use xlink:href="#DejaVuSans-32"/>
       <use xlink:href="#DejaVuSans-30" x="63.623047"/>
       <use xlink:href="#DejaVuSans-32" x="127.246094"/>
       <use xlink:href="#DejaVuSans-34" x="190.869141"/>
       <use xlink:href="#DejaVuSans-2d" x="254.492188"/>
       <use xlink:href="#DejaVuSans-30" x="290.576172"/>
       <use xlink:href="#DejaVuSans-31" x="354.199219"/>
      </g>
     </g>
    </g>
    <g id="xtick_9">
     <g id="line2d_17">
      <path d="M 341.59921 265.977437 
L 341.59921 4.608 
" clip-path="url(#pfe9cd5f781)" style="fill: none; stroke: #c0c0c0; stroke-linecap: square"/>
     </g>
     <g id="line2d_18">
      <path d="M 341.59921 265.977437 
" style="fill: none; stroke: #333333; stroke-width: 1.5; stroke-linecap: square"/>
      <g>
       <use xlink:href="#m6acbca919d" x="341.59921" y="265.977437" style="fill: #333333; stroke: #333333"/>
      </g>
     </g>
     <g id="text_9">
      <!-- 2024-07 -->
      <g style="fill: #4d4d4d" transform="translate(344.91046 321.866812) rotate(-90) scale(0.12 -0.12)">
       <use xlink:href="#DejaVuSans-32"/>
       <use xlink:href="#DejaVuSans-30" x="63.623047"/>
       <use xlink:href="#DejaVuSans-32" x="127.246094"/>
       <use xlink:href="#DejaVuSans-34" x="190.869141"/>
       <use xlink:href="#DejaVuSans-2d" x="254.492188"/>
       <use xlink:href="#DejaVuSans-30" x="290.576172"/>
       <use xlink:href="#DejaVuSans-37" x="354.199219"/>
      </g>
     </g>
    </g>
    <g id="xtick_10">
     <g id="line2d_19">
      <path d="M 88.688338 265.977437 
L 88.688338 4.608 
" clip-path="url(#pfe9cd5f781)" style="fill: none; stroke: #d0d0d0; stroke-width: 0.5; stroke-linecap: square"/>
     </g>
     <g id="line2d_20">
      <path d="M 88.688338 265.977437 
" style="fill: none; stroke: #333333; stroke-width: 1.5; stroke-linecap: square"/>
      <defs>
       <path id="mdd239a94e3" d="M 0 0 
L 0 1.875 
" style="stroke: #333333"/>
      </defs>
      <g>
       <use xlink:href="#mdd239a94e3" x="88.688338" y="265.977437" style="fill: #333333; stroke: #333333"/>
      </g>
     </g>
    </g>
    <g id="xtick_11">
     <g id="line2d_21">
      <path d="M 118.509659 265.977437 
L 118.509659 4.608 
" clip-path="url(#pfe9cd5f781)" style="fill: none; stroke: #d0d0d0; stroke-width: 0.5; stroke-linecap: square"/>
     </g>
     <g id="line2d_22">
      <path d="M 118.509659 265.977437 
" style="fill: none; stroke: #333333; stroke-width: 1.5; stroke-linecap: square"/>
      <g>
       <use xlink:href="#mdd239a94e3" x="118.509659" y="265.977437" style="fill: #333333; stroke: #333333"/>
      </g>
     </g>
    </g>
    <g id="xtick_12">
     <g id="line2d_23">
      <path d="M 148.2495 265.977437 
L 148.2495 4.608 
" clip-path="url(#pfe9cd5f781)" style="fill: none; stroke: #d0d0d0; stroke-width: 0.5; stroke-linecap: square"/>
     </g>
     <g id="line2d_24">
      <path d="M 148.2495 265.977437 
" style="fill: none; stroke: #333333; stroke-width: 1.5; stroke-linecap: square"/>
      <g>
       <use xlink:href="#mdd239a94e3" x="148.2495" y="265.977437" style="fill: #333333; stroke: #333333"/>
      </g>
     </g>
    </g>
    <g id="xtick_13">
     <g id="line2d_25">
      <path d="M 177.989342 265.977437 
L 177.989342 4.608 
" clip-path="url(#pfe9cd5f781)" style="fill: none; stroke: #d0d0d0; stroke-width: 0.5; stroke-linecap: square"/>
     </g>
     <g id="line2d_26">
      <path d="M 177.989342 265.977437 
" style="fill: none; stroke: #333333; stroke-width: 1.5; stroke-linecap: square"/>
      <g>
       <use xlink:href="#mdd239a94e3" x="177.989342" y="265.977437" style="fill: #333333; stroke: #333333"/>
      </g>
     </g>
    </g>
    <g id="xtick_14">
     <g id="line2d_27">
      <path d="M 207.729183 265.977437 
L 207.729183 4.608 
" clip-path="url(#pfe9cd5f781)" style="fill: none; stroke: #d0d0d0; stroke-width: 0.5; stroke-linecap: square"/>
     </g>
     <g id="line2d_28">
      <path d="M 207.729183 265.977437 
" style="fill: none; stroke: #333333; stroke-width: 1.5; stroke-linecap: square"/>
      <g>
       <use xlink:href="#mdd239a94e3" x="207.729183" y="265.977437" style="fill: #333333; stroke: #333333"/>
      </g>
     </g>
    </g>
    <g id="xtick_15">
     <g id="line2d_29">
      <path d="M 237.469025 265.977437 
L 237.469025 4.608 
" clip-path="url(#pfe9cd5f781)" style="fill: none; stroke: #d0d0d0; stroke-width: 0.5; stroke-linecap: square"/>
     </g>
     <g id="line2d_30">
      <path d="M 237.469025 265.977437 
" style="fill: none; stroke: #333333; stroke-width: 1.5; stroke-linecap: square"/>
      <g>
       <use xlink:href="#mdd239a94e3" x="237.469025" y="265.977437" style="fill: #333333; stroke: #333333"/>
      </g>
     </g>
    </g>
    <g id="xtick_16">
     <g id="line2d_31">
      <path d="M 267.208867 265.977437 
L 267.208867 4.608 
" clip-path="url(#pfe9cd5f781)" style="fill: none; stroke: #d0d0d0; stroke-width: 0.5; stroke-linecap: square"/>
     </g>
     <g id="line2d_32">
      <path d="M 267.208867 265.977437 
" style="fill: none; stroke: #333333; stroke-width: 1.5; stroke-linecap: square"/>
      <g>
       <use xlink:href="#mdd239a94e3" x="267.208867" y="265.977437" style="fill: #333333; stroke: #333333"/>
      </g>
     </g>
    </g>
    <g id="xtick_17">
     <g id="line2d_33">
      <path d="M 296.948708 265.977437 
L 296.948708 4.608 
" clip-path="url(#pfe9cd5f781)" style="fill: none; stroke: #d0d0d0; stroke-width: 0.5; stroke-linecap: square"/>
     </g>
     <g id="line2d_34">
      <path d="M 296.948708 265.977437 
" style="fill: none; stroke: #333333; stroke-width: 1.5; stroke-linecap: square"/>
      <g>
       <use xlink:href="#mdd239a94e3" x="296.948708" y="265.977437" style="fill: #333333; stroke: #333333"/>
      </g>
     </g>
    </g>
    <g id="xtick_18">
     <g id="line2d_35">
      <path d="M 326.770029 265.977437 
L 326.770029 4.608 
" clip-path="url(#pfe9cd5f781)" style="fill: none; stroke: #d0d0d0; stroke-width: 0.5; stroke-linecap: square"/>
     </g>
     <g id="line2d_36">
      <path d="M 326.770029 265.977437 
" style="fill: none; stroke: #333333; stroke-width: 1.5; stroke-linecap: square"/>
      <g>
       <use xlink:href="#mdd239a94e3" x="326.770029" y="265.977437" style="fill: #333333; stroke: #333333"/>
      </g>
     </g>
    </g>
    <g id="xtick_19">
     <g id="line2d_37">
      <path d="M 356.591349 265.977437 
L 356.591349 4.608 
" clip-path="url(#pfe9cd5f781)" style="fill: none; stroke: #d0d0d0; stroke-width: 0.5; stroke-linecap: square"/>
     </g>
     <g id="line2d_38">
      <path d="M 356.591349 265.977437 
" style="fill: none; stroke: #333333; stroke-width: 1.5; stroke-linecap: square"/>
      <g>
       <use xlink:href="#mdd239a94e3" x="356.591349" y="265.977437" style="fill: #333333; stroke: #333333"/>
      </g>
     </g>
    </g>
   </g>
   <g id="matplotlib.axis_2">
    <g id="ytick_1">
     <g id="line2d_39">
      <path d="M 75.293188 203.771409 
L 369.9865 203.771409 
" clip-path="url(#pfe9cd5f781)" style="fill: none; stroke: #c0c0c0; stroke-linecap: square"/>
     </g>
     <g id="line2d_40">
      <path d="M 75.293188 203.771409 
" style="fill: none; stroke: #333333; stroke-width: 1.5; stroke-linecap: square"/>
      <defs>
       <path id="m69bce26222" d="M 0 0 
L -3.75 0 
" style="stroke: #333333"/>
      </defs>
      <g>
       <use xlink:href="#m69bce26222" x="75.293188" y="203.771409" style="fill: #333333; stroke: #333333"/>
      </g>
     </g>
     <g id="text_10">
      <!-- 50000 -->
      <g style="fill: #4d4d4d" transform="translate(31.368188 208.330471) scale(0.12 -0.12)">
       <defs>
        <path id="DejaVuSans-35" d="M 691 4666 
L 3169 4666 
L 3169 4134 
L 1269 4134 
L 1269 2991 
Q 1406 3038 1543 3061 
Q 1681 3084 1819 3084 
Q 2600 3084 3056 2656 
Q 3513 2228 3513 1497 
Q 3513 744 3044 326 
Q 2575 -91 1722 -91 
Q 1428 -91 1123 -41 
Q 819 9 494 109 
L 494 744 
Q 775 591 1075 516 
Q 1375 441 1709 441 
Q 2250 441 2565 725 
Q 2881 1009 2881 1497 
Q 2881 1984 2565 2268 
Q 2250 2553 1709 2553 
Q 1456 2553 1204 2497 
Q 953 2441 691 2322 
L 691 4666 
z
" transform="scale(0.015625)"/>
       </defs>
       <use xlink:href="#DejaVuSans-35"/>
       <use xlink:href="#DejaVuSans-30" x="63.623047"/>
       <use xlink:href="#DejaVuSans-30" x="127.246094"/>
       <use xlink:href="#DejaVuSans-30" x="190.869141"/>
       <use xlink:href="#DejaVuSans-30" x="254.492188"/>
      </g>
     </g>
    </g>
    <g id="ytick_2">
     <g id="line2d_41">
      <path d="M 75.293188 131.327118 
L 369.9865 131.327118 
" clip-path="url(#pfe9cd5f781)" style="fill: none; stroke: #c0c0c0; stroke-linecap: square"/>
     </g>
     <g id="line2d_42">
      <path d="M 75.293188 131.327118 
" style="fill: none; stroke: #333333; stroke-width: 1.5; stroke-linecap: square"/>
      <g>
       <use xlink:href="#m69bce26222" x="75.293188" y="131.327118" style="fill: #333333; stroke: #333333"/>
      </g>
     </g>
     <g id="text_11">
      <!-- 75000 -->
      <g style="fill: #4d4d4d" transform="translate(31.368188 135.886181) scale(0.12 -0.12)">
       <use xlink:href="#DejaVuSans-37"/>
       <use xlink:href="#DejaVuSans-35" x="63.623047"/>
       <use xlink:href="#DejaVuSans-30" x="127.246094"/>
       <use xlink:href="#DejaVuSans-30" x="190.869141"/>
       <use xlink:href="#DejaVuSans-30" x="254.492188"/>
      </g>
     </g>
    </g>
    <g id="ytick_3">
     <g id="line2d_43">
      <path d="M 75.293188 58.882828 
L 369.9865 58.882828 
" clip-path="url(#pfe9cd5f781)" style="fill: none; stroke: #c0c0c0; stroke-linecap: square"/>
     </g>
     <g id="line2d_44">
      <path d="M 75.293188 58.882828 
" style="fill: none; stroke: #333333; stroke-width: 1.5; stroke-linecap: square"/>
      <g>
       <use xlink:href="#m69bce26222" x="75.293188" y="58.882828" style="fill: #333333; stroke: #333333"/>
      </g>
     </g>
     <g id="text_12">
      <!-- 100000 -->
      <g style="fill: #4d4d4d" transform="translate(23.733188 63.44189) scale(0.12 -0.12)">
       <use xlink:href="#DejaVuSans-31"/>
       <use xlink:href="#DejaVuSans-30" x="63.623047"/>
       <use xlink:href="#DejaVuSans-30" x="127.246094"/>
       <use xlink:href="#DejaVuSans-30" x="190.869141"/>
       <use xlink:href="#DejaVuSans-30" x="254.492188"/>
       <use xlink:href="#DejaVuSans-30" x="318.115234"/>
      </g>
     </g>
    </g>
    <g id="ytick_4">
     <g id="line2d_45">
      <path d="M 75.293188 239.993554 
L 369.9865 239.993554 
" clip-path="url(#pfe9cd5f781)" style="fill: none; stroke: #d0d0d0; stroke-width: 0.5; stroke-linecap: square"/>
     </g>
     <g id="line2d_46">
      <path d="M 75.293188 239.993554 
" style="fill: none; stroke: #333333; stroke-width: 1.5; stroke-linecap: square"/>
      <defs>
       <path id="m7a6d098c0a" d="M 0 0 
L -1.875 0 
" style="stroke: #333333"/>
      </defs>
      <g>
       <use xlink:href="#m7a6d098c0a" x="75.293188" y="239.993554" style="fill: #333333; stroke: #333333"/>
      </g>
     </g>
    </g>
    <g id="ytick_5">
     <g id="line2d_47">
      <path d="M 75.293188 167.549264 
L 369.9865 167.549264 
" clip-path="url(#pfe9cd5f781)" style="fill: none; stroke: #d0d0d0; stroke-width: 0.5; stroke-linecap: square"/>
     </g>
     <g id="line2d_48">
      <path d="M 75.293188 167.549264 
" style="fill: none; stroke: #333333; stroke-width: 1.5; stroke-linecap: square"/>
      <g>
       <use xlink:href="#m7a6d098c0a" x="75.293188" y="167.549264" style="fill: #333333; stroke: #333333"/>
      </g>
     </g>
    </g>
    <g id="ytick_6">
     <g id="line2d_49">
      <path d="M 75.293188 95.104973 
L 369.9865 95.104973 
" clip-path="url(#pfe9cd5f781)" style="fill: none; stroke: #d0d0d0; stroke-width: 0.5; stroke-linecap: square"/>
     </g>
     <g id="line2d_50">
      <path d="M 75.293188 95.104973 
" style="fill: none; stroke: #333333; stroke-width: 1.5; stroke-linecap: square"/>
      <g>
       <use xlink:href="#m7a6d098c0a" x="75.293188" y="95.104973" style="fill: #333333; stroke: #333333"/>
      </g>
     </g>
    </g>
    <g id="ytick_7">
     <g id="line2d_51">
      <path d="M 75.293188 22.660683 
L 369.9865 22.660683 
" clip-path="url(#pfe9cd5f781)" style="fill: none; stroke: #d0d0d0; stroke-width: 0.5; stroke-linecap: square"/>
     </g>
     <g id="line2d_52">
      <path d="M 75.293188 22.660683 
" style="fill: none; stroke: #333333; stroke-width: 1.5; stroke-linecap: square"/>
      <g>
       <use xlink:href="#m7a6d098c0a" x="75.293188" y="22.660683" style="fill: #333333; stroke: #333333"/>
      </g>
     </g>
    </g>
   </g>
   <g id="PathCollection_1">
    <path d="M 183.041041 121.092385 
C 184.333707 121.092385 185.573602 120.578804 186.487655 119.664751 
C 187.401708 118.750698 187.915289 117.510803 187.915289 116.218137 
C 187.915289 114.925471 187.401708 113.685576 186.487655 112.771523 
C 185.573602 111.85747 184.333707 111.343889 183.041041 111.343889 
C 181.748375 111.343889 180.50848 111.85747 179.594427 112.771523 
C 178.680374 113.685576 178.166793 114.925471 178.166793 116.218137 
C 178.166793 117.510803 178.680374 118.750698 179.594427 119.664751 
C 180.50848 120.578804 181.748375 121.092385 183.041041 121.092385 
z
" clip-path="url(#pfe9cd5f781)" style="fill: #415e9f; stroke: #415e9f; stroke-width: 0.886227"/>
    <path d="M 212.536446 104.328776 
C 213.829111 104.328776 215.069007 103.815195 215.983059 102.901142 
C 216.897112 101.987089 217.410694 100.747194 217.410694 99.454528 
C 217.410694 98.161863 216.897112 96.921967 215.983059 96.007914 
C 215.069007 95.093862 213.829111 94.58028 212.536446 94.58028 
C 211.24378 94.58028 210.003884 95.093862 209.089832 96.007914 
C 208.175779 96.921967 207.662197 98.161863 207.662197 99.454528 
C 207.662197 100.747194 208.175779 101.987089 209.089832 102.901142 
C 210.003884 103.815195 211.24378 104.328776 212.536446 104.328776 
z
" clip-path="url(#pfe9cd5f781)" style="fill: #415e9f; stroke: #415e9f; stroke-width: 0.886227"/>
    <path d="M 242.520724 76.588409 
C 243.81339 76.588409 245.053285 76.074827 245.967338 75.160774 
C 246.881391 74.246722 247.394972 73.006826 247.394972 71.714161 
C 247.394972 70.421495 246.881391 69.181599 245.967338 68.267547 
C 245.053285 67.353494 243.81339 66.839912 242.520724 66.839912 
C 241.228058 66.839912 239.988163 67.353494 239.07411 68.267547 
C 238.160058 69.181599 237.646476 70.421495 237.646476 71.714161 
C 237.646476 73.006826 238.160058 74.246722 239.07411 75.160774 
C 239.988163 76.074827 241.228058 76.588409 242.520724 76.588409 
z
" clip-path="url(#pfe9cd5f781)" style="fill: #415e9f; stroke: #415e9f; stroke-width: 0.886227"/>
    <path d="M 272.016129 63.774463 
C 273.308794 63.774463 274.54869 63.260881 275.462743 62.346828 
C 276.376795 61.432776 276.890377 60.19288 276.890377 58.900214 
C 276.890377 57.607549 276.376795 56.367653 275.462743 55.453601 
C 274.54869 54.539548 273.308794 54.025966 272.016129 54.025966 
C 270.723463 54.025966 269.483567 54.539548 268.569515 55.453601 
C 267.655462 56.367653 267.141881 57.607549 267.141881 58.900214 
C 267.141881 60.19288 267.655462 61.432776 268.569515 62.346828 
C 269.483567 63.260881 270.723463 63.774463 272.016129 63.774463 
z
" clip-path="url(#pfe9cd5f781)" style="fill: #415e9f; stroke: #415e9f; stroke-width: 0.886227"/>
    <path d="M 302.000407 43.461083 
C 303.293073 43.461083 304.532969 42.947502 305.447021 42.033449 
C 306.361074 41.119397 306.874655 39.879501 306.874655 38.586835 
C 306.874655 37.29417 306.361074 36.054274 305.447021 35.140221 
C 304.532969 34.226169 303.293073 33.712587 302.000407 33.712587 
C 300.707742 33.712587 299.467846 34.226169 298.553793 35.140221 
C 297.639741 36.054274 297.126159 37.29417 297.126159 38.586835 
C 297.126159 39.879501 297.639741 41.119397 298.553793 42.033449 
C 299.467846 42.947502 300.707742 43.461083 302.000407 43.461083 
z
" clip-path="url(#pfe9cd5f781)" style="fill: #415e9f; stroke: #415e9f; stroke-width: 0.886227"/>
    <path d="M 331.65877 21.362677 
C 332.951436 21.362677 334.191331 20.849096 335.105384 19.935043 
C 336.019436 19.02099 336.533018 17.781095 336.533018 16.488429 
C 336.533018 15.195763 336.019436 13.955868 335.105384 13.041815 
C 334.191331 12.127762 332.951436 11.614181 331.65877 11.614181 
C 330.366104 11.614181 329.126209 12.127762 328.212156 13.041815 
C 327.298103 13.955868 326.784522 15.195763 326.784522 16.488429 
C 326.784522 17.781095 327.298103 19.02099 328.212156 19.935043 
C 329.126209 20.849096 330.366104 21.362677 331.65877 21.362677 
z
" clip-path="url(#pfe9cd5f781)" style="fill: #415e9f; stroke: #415e9f; stroke-width: 0.886227"/>
    <path d="M 88.688338 258.971257 
C 89.981004 258.971257 91.220899 258.457675 92.134952 257.543622 
C 93.049005 256.62957 93.562586 255.389674 93.562586 254.097009 
C 93.562586 252.804343 93.049005 251.564447 92.134952 250.650395 
C 91.220899 249.736342 89.981004 249.22276 88.688338 249.22276 
C 87.395672 249.22276 86.155777 249.736342 85.241724 250.650395 
C 84.327672 251.564447 83.81409 252.804343 83.81409 254.097009 
C 83.81409 255.389674 84.327672 256.62957 85.241724 257.543622 
C 86.155777 258.457675 87.395672 258.971257 88.688338 258.971257 
z
" clip-path="url(#pfe9cd5f781)" style="fill: #e95420; stroke: #e95420; stroke-width: 0.886227"/>
    <path d="M 207.647704 249.594068 
C 208.94037 249.594068 210.180266 249.080486 211.094318 248.166433 
C 212.008371 247.252381 212.521953 246.012485 212.521953 244.71982 
C 212.521953 243.427154 212.008371 242.187258 211.094318 241.273206 
C 210.180266 240.359153 208.94037 239.845571 207.647704 239.845571 
C 206.355039 239.845571 205.115143 240.359153 204.201091 241.273206 
C 203.287038 242.187258 202.773456 243.427154 202.773456 244.71982 
C 202.773456 246.012485 203.287038 247.252381 204.201091 248.166433 
C 205.115143 249.080486 206.355039 249.594068 207.647704 249.594068 
z
" clip-path="url(#pfe9cd5f781)" style="fill: #e95420; stroke: #e95420; stroke-width: 0.886227"/>
    <path d="M 267.127388 247.745289 
C 268.420053 247.745289 269.659949 247.231708 270.574001 246.317655 
C 271.488054 245.403602 272.001636 244.163707 272.001636 242.871041 
C 272.001636 241.578376 271.488054 240.33848 270.574001 239.424427 
C 269.659949 238.510375 268.420053 237.996793 267.127388 237.996793 
C 265.834722 237.996793 264.594826 238.510375 263.680774 239.424427 
C 262.766721 240.33848 262.25314 241.578376 262.25314 242.871041 
C 262.25314 244.163707 262.766721 245.403602 263.680774 246.317655 
C 264.594826 247.231708 265.834722 247.745289 267.127388 247.745289 
z
" clip-path="url(#pfe9cd5f781)" style="fill: #e95420; stroke: #e95420; stroke-width: 0.886227"/>
    <path d="M 296.948708 245.421277 
C 298.241374 245.421277 299.481269 244.907695 300.395322 243.993642 
C 301.309375 243.07959 301.822956 241.839694 301.822956 240.547028 
C 301.822956 239.254363 301.309375 238.014467 300.395322 237.100415 
C 299.481269 236.186362 298.241374 235.67278 296.948708 235.67278 
C 295.656043 235.67278 294.416147 236.186362 293.502094 237.100415 
C 292.588042 238.014467 292.07446 239.254363 292.07446 240.547028 
C 292.07446 241.839694 292.588042 243.07959 293.502094 243.993642 
C 294.416147 244.907695 295.656043 245.421277 296.948708 245.421277 
z
" clip-path="url(#pfe9cd5f781)" style="fill: #e95420; stroke: #e95420; stroke-width: 0.886227"/>
    <path d="M 326.770029 242.749531 
C 328.062695 242.749531 329.30259 242.23595 330.216643 241.321897 
C 331.130695 240.407844 331.644277 239.167949 331.644277 237.875283 
C 331.644277 236.582617 331.130695 235.342722 330.216643 234.428669 
C 329.30259 233.514616 328.062695 233.001035 326.770029 233.001035 
C 325.477363 233.001035 324.237468 233.514616 323.323415 234.428669 
C 322.409362 235.342722 321.895781 236.582617 321.895781 237.875283 
C 321.895781 239.167949 322.409362 240.407844 323.323415 241.321897 
C 324.237468 242.23595 325.477363 242.749531 326.770029 242.749531 
z
" clip-path="url(#pfe9cd5f781)" style="fill: #e95420; stroke: #e95420; stroke-width: 0.886227"/>
    <path d="M 356.591349 241.952644 
C 357.884015 241.952644 359.123911 241.439062 360.037963 240.52501 
C 360.952016 239.610957 361.465598 238.371062 361.465598 237.078396 
C 361.465598 235.78573 360.952016 234.545835 360.037963 233.631782 
C 359.123911 232.717729 357.884015 232.204148 356.591349 232.204148 
C 355.298684 232.204148 354.058788 232.717729 353.144736 233.631782 
C 352.230683 234.545835 351.717101 235.78573 351.717101 237.078396 
C 351.717101 238.371062 352.230683 239.610957 353.144736 240.52501 
C 354.058788 241.439062 355.298684 241.952644 356.591349 241.952644 
z
" clip-path="url(#pfe9cd5f781)" style="fill: #e95420; stroke: #e95420; stroke-width: 0.886227"/>
   </g>
   <g id="line2d_53">
    <path d="M 183.041041 116.218137 
L 212.536446 99.454528 
L 242.520724 71.714161 
L 272.016129 58.900214 
L 302.000407 38.586835 
L 331.65877 16.488429 
" clip-path="url(#pfe9cd5f781)" style="fill: none; stroke: #415e9f; stroke-width: 0.886227"/>
   </g>
   <g id="line2d_54">
    <path d="M 88.688338 254.097009 
L 207.647704 244.71982 
L 267.127388 242.871041 
L 296.948708 240.547028 
L 326.770029 237.875283 
L 356.591349 237.078396 
" clip-path="url(#pfe9cd5f781)" style="fill: none; stroke: #e95420; stroke-width: 0.886227"/>
   </g>
  </g>
  <g id="patch_3">
   <path d="M 75.293188 265.977437 
L 369.9865 265.977437 
L 369.9865 4.608 
L 75.293188 4.608 
L 75.293188 265.977437 
z
" style="fill: none; stroke: #7f7f7f; stroke-linejoin: miter"/>
  </g>
  <g id="text_13">
   <!-- Nixpkg release -->
   <g transform="translate(166.911328 337.872469) scale(0.15 -0.15)">
    <defs>
     <path id="DejaVuSans-4e" d="M 628 4666 
L 1478 4666 
L 3547 763 
L 3547 4666 
L 4159 4666 
L 4159 0 
L 3309 0 
L 1241 3903 
L 1241 0 
L 628 0 
L 628 4666 
z
" transform="scale(0.015625)"/>
     <path id="DejaVuSans-69" d="M 603 3500 
L 1178 3500 
L 1178 0 
L 603 0 
L 603 3500 
z
M 603 4863 
L 1178 4863 
L 1178 4134 
L 603 4134 
L 603 4863 
z
" transform="scale(0.015625)"/>
     <path id="DejaVuSans-78" d="M 3513 3500 
L 2247 1797 
L 3578 0 
L 2900 0 
L 1881 1375 
L 863 0 
L 184 0 
L 1544 1831 
L 300 3500 
L 978 3500 
L 1906 2253 
L 2834 3500 
L 3513 3500 
z
" transform="scale(0.015625)"/>
     <path id="DejaVuSans-70" d="M 1159 525 
L 1159 -1331 
L 581 -1331 
L 581 3500 
L 1159 3500 
L 1159 2969 
Q 1341 3281 1617 3432 
Q 1894 3584 2278 3584 
Q 2916 3584 3314 3078 
Q 3713 2572 3713 1747 
Q 3713 922 3314 415 
Q 2916 -91 2278 -91 
Q 1894 -91 1617 61 
Q 1341 213 1159 525 
z
M 3116 1747 
Q 3116 2381 2855 2742 
Q 2594 3103 2138 3103 
Q 1681 3103 1420 2742 
Q 1159 2381 1159 1747 
Q 1159 1113 1420 752 
Q 1681 391 2138 391 
Q 2594 391 2855 752 
Q 3116 1113 3116 1747 
z
" transform="scale(0.015625)"/>
     <path id="DejaVuSans-6b" d="M 581 4863 
L 1159 4863 
L 1159 1991 
L 2875 3500 
L 3609 3500 
L 1753 1863 
L 3688 0 
L 2938 0 
L 1159 1709 
L 1159 0 
L 581 0 
L 581 4863 
z
" transform="scale(0.015625)"/>
     <path id="DejaVuSans-67" d="M 2906 1791 
Q 2906 2416 2648 2759 
Q 2391 3103 1925 3103 
Q 1463 3103 1205 2759 
Q 947 2416 947 1791 
Q 947 1169 1205 825 
Q 1463 481 1925 481 
Q 2391 481 2648 825 
Q 2906 1169 2906 1791 
z
M 3481 434 
Q 3481 -459 3084 -895 
Q 2688 -1331 1869 -1331 
Q 1566 -1331 1297 -1286 
Q 1028 -1241 775 -1147 
L 775 -588 
Q 1028 -725 1275 -790 
Q 1522 -856 1778 -856 
Q 2344 -856 2625 -561 
Q 2906 -266 2906 331 
L 2906 616 
Q 2728 306 2450 153 
Q 2172 0 1784 0 
Q 1141 0 747 490 
Q 353 981 353 1791 
Q 353 2603 747 3093 
Q 1141 3584 1784 3584 
Q 2172 3584 2450 3431 
Q 2728 3278 2906 2969 
L 2906 3500 
L 3481 3500 
L 3481 434 
z
" transform="scale(0.015625)"/>
     <path id="DejaVuSans-20" transform="scale(0.015625)"/>
     <path id="DejaVuSans-72" d="M 2631 2963 
Q 2534 3019 2420 3045 
Q 2306 3072 2169 3072 
Q 1681 3072 1420 2755 
Q 1159 2438 1159 1844 
L 1159 0 
L 581 0 
L 581 3500 
L 1159 3500 
L 1159 2956 
Q 1341 3275 1631 3429 
Q 1922 3584 2338 3584 
Q 2397 3584 2469 3576 
Q 2541 3569 2628 3553 
L 2631 2963 
z
" transform="scale(0.015625)"/>
     <path id="DejaVuSans-65" d="M 3597 1894 
L 3597 1613 
L 953 1613 
Q 991 1019 1311 708 
Q 1631 397 2203 397 
Q 2534 397 2845 478 
Q 3156 559 3463 722 
L 3463 178 
Q 3153 47 2828 -22 
Q 2503 -91 2169 -91 
Q 1331 -91 842 396 
Q 353 884 353 1716 
Q 353 2575 817 3079 
Q 1281 3584 2069 3584 
Q 2775 3584 3186 3129 
Q 3597 2675 3597 1894 
z
M 3022 2063 
Q 3016 2534 2758 2815 
Q 2500 3097 2075 3097 
Q 1594 3097 1305 2825 
Q 1016 2553 972 2059 
L 3022 2063 
z
" transform="scale(0.015625)"/>
     <path id="DejaVuSans-6c" d="M 603 4863 
L 1178 4863 
L 1178 0 
L 603 0 
L 603 4863 
z
" transform="scale(0.015625)"/>
     <path id="DejaVuSans-61" d="M 2194 1759 
Q 1497 1759 1228 1600 
Q 959 1441 959 1056 
Q 959 750 1161 570 
Q 1363 391 1709 391 
Q 2188 391 2477 730 
Q 2766 1069 2766 1631 
L 2766 1759 
L 2194 1759 
z
M 3341 1997 
L 3341 0 
L 2766 0 
L 2766 531 
Q 2569 213 2275 61 
Q 1981 -91 1556 -91 
Q 1019 -91 701 211 
Q 384 513 384 1019 
Q 384 1609 779 1909 
Q 1175 2209 1959 2209 
L 2766 2209 
L 2766 2266 
Q 2766 2663 2505 2880 
Q 2244 3097 1772 3097 
Q 1472 3097 1187 3025 
Q 903 2953 641 2809 
L 641 3341 
Q 956 3463 1253 3523 
Q 1550 3584 1831 3584 
Q 2591 3584 2966 3190 
Q 3341 2797 3341 1997 
z
" transform="scale(0.015625)"/>
     <path id="DejaVuSans-73" d="M 2834 3397 
L 2834 2853 
Q 2591 2978 2328 3040 
Q 2066 3103 1784 3103 
Q 1356 3103 1142 2972 
Q 928 2841 928 2578 
Q 928 2378 1081 2264 
Q 1234 2150 1697 2047 
L 1894 2003 
Q 2506 1872 2764 1633 
Q 3022 1394 3022 966 
Q 3022 478 2636 193 
Q 2250 -91 1575 -91 
Q 1294 -91 989 -36 
Q 684 19 347 128 
L 347 722 
Q 666 556 975 473 
Q 1284 391 1588 391 
Q 1994 391 2212 530 
Q 2431 669 2431 922 
Q 2431 1156 2273 1281 
Q 2116 1406 1581 1522 
L 1381 1569 
Q 847 1681 609 1914 
Q 372 2147 372 2553 
Q 372 3047 722 3315 
Q 1072 3584 1716 3584 
Q 2034 3584 2315 3537 
Q 2597 3491 2834 3397 
z
" transform="scale(0.015625)"/>
    </defs>
    <use xlink:href="#DejaVuSans-4e"/>
    <use xlink:href="#DejaVuSans-69" x="74.804688"/>
    <use xlink:href="#DejaVuSans-78" x="102.587891"/>
    <use xlink:href="#DejaVuSans-70" x="161.767578"/>
    <use xlink:href="#DejaVuSans-6b" x="225.244141"/>
    <use xlink:href="#DejaVuSans-67" x="283.154297"/>
    <use xlink:href="#DejaVuSans-20" x="346.630859"/>
    <use xlink:href="#DejaVuSans-72" x="378.417969"/>
    <use xlink:href="#DejaVuSans-65" x="417.28125"/>
    <use xlink:href="#DejaVuSans-6c" x="478.804688"/>
    <use xlink:href="#DejaVuSans-65" x="506.587891"/>
    <use xlink:href="#DejaVuSans-61" x="568.111328"/>
    <use xlink:href="#DejaVuSans-73" x="629.390625"/>
    <use xlink:href="#DejaVuSans-65" x="681.490234"/>
   </g>
  </g>
  <g id="text_14">
   <!-- Package count -->
   <g transform="translate(16.005656 189.924359) rotate(-90) scale(0.15 -0.15)">
    <defs>
     <path id="DejaVuSans-50" d="M 1259 4147 
L 1259 2394 
L 2053 2394 
Q 2494 2394 2734 2622 
Q 2975 2850 2975 3272 
Q 2975 3691 2734 3919 
Q 2494 4147 2053 4147 
L 1259 4147 
z
M 628 4666 
L 2053 4666 
Q 2838 4666 3239 4311 
Q 3641 3956 3641 3272 
Q 3641 2581 3239 2228 
Q 2838 1875 2053 1875 
L 1259 1875 
L 1259 0 
L 628 0 
L 628 4666 
z
" transform="scale(0.015625)"/>
     <path id="DejaVuSans-63" d="M 3122 3366 
L 3122 2828 
Q 2878 2963 2633 3030 
Q 2388 3097 2138 3097 
Q 1578 3097 1268 2742 
Q 959 2388 959 1747 
Q 959 1106 1268 751 
Q 1578 397 2138 397 
Q 2388 397 2633 464 
Q 2878 531 3122 666 
L 3122 134 
Q 2881 22 2623 -34 
Q 2366 -91 2075 -91 
Q 1284 -91 818 406 
Q 353 903 353 1747 
Q 353 2603 823 3093 
Q 1294 3584 2113 3584 
Q 2378 3584 2631 3529 
Q 2884 3475 3122 3366 
z
" transform="scale(0.015625)"/>
     <path id="DejaVuSans-6f" d="M 1959 3097 
Q 1497 3097 1228 2736 
Q 959 2375 959 1747 
Q 959 1119 1226 758 
Q 1494 397 1959 397 
Q 2419 397 2687 759 
Q 2956 1122 2956 1747 
Q 2956 2369 2687 2733 
Q 2419 3097 1959 3097 
z
M 1959 3584 
Q 2709 3584 3137 3096 
Q 3566 2609 3566 1747 
Q 3566 888 3137 398 
Q 2709 -91 1959 -91 
Q 1206 -91 779 398 
Q 353 888 353 1747 
Q 353 2609 779 3096 
Q 1206 3584 1959 3584 
z
" transform="scale(0.015625)"/>
     <path id="DejaVuSans-75" d="M 544 1381 
L 544 3500 
L 1119 3500 
L 1119 1403 
Q 1119 906 1312 657 
Q 1506 409 1894 409 
Q 2359 409 2629 706 
Q 2900 1003 2900 1516 
L 2900 3500 
L 3475 3500 
L 3475 0 
L 2900 0 
L 2900 538 
Q 2691 219 2414 64 
Q 2138 -91 1772 -91 
Q 1169 -91 856 284 
Q 544 659 544 1381 
z
M 1991 3584 
L 1991 3584 
z
" transform="scale(0.015625)"/>
     <path id="DejaVuSans-6e" d="M 3513 2113 
L 3513 0 
L 2938 0 
L 2938 2094 
Q 2938 2591 2744 2837 
Q 2550 3084 2163 3084 
Q 1697 3084 1428 2787 
Q 1159 2491 1159 1978 
L 1159 0 
L 581 0 
L 581 3500 
L 1159 3500 
L 1159 2956 
Q 1366 3272 1645 3428 
Q 1925 3584 2291 3584 
Q 2894 3584 3203 3211 
Q 3513 2838 3513 2113 
z
" transform="scale(0.015625)"/>
     <path id="DejaVuSans-74" d="M 1172 4494 
L 1172 3500 
L 2356 3500 
L 2356 3053 
L 1172 3053 
L 1172 1153 
Q 1172 725 1289 603 
Q 1406 481 1766 481 
L 2356 481 
L 2356 0 
L 1766 0 
Q 1100 0 847 248 
Q 594 497 594 1153 
L 594 3053 
L 172 3053 
L 172 3500 
L 594 3500 
L 594 4494 
L 1172 4494 
z
" transform="scale(0.015625)"/>
    </defs>
    <use xlink:href="#DejaVuSans-50"/>
    <use xlink:href="#DejaVuSans-61" x="55.802734"/>
    <use xlink:href="#DejaVuSans-63" x="117.082031"/>
    <use xlink:href="#DejaVuSans-6b" x="172.0625"/>
    <use xlink:href="#DejaVuSans-61" x="228.222656"/>
    <use xlink:href="#DejaVuSans-67" x="289.501953"/>
    <use xlink:href="#DejaVuSans-65" x="352.978516"/>
    <use xlink:href="#DejaVuSans-20" x="414.501953"/>
    <use xlink:href="#DejaVuSans-63" x="446.289062"/>
    <use xlink:href="#DejaVuSans-6f" x="501.269531"/>
    <use xlink:href="#DejaVuSans-75" x="562.451172"/>
    <use xlink:href="#DejaVuSans-6e" x="625.830078"/>
    <use xlink:href="#DejaVuSans-74" x="689.208984"/>
   </g>
  </g>
  <g id="patch_4">
   <path d="M 383.8105 167.303312 
L 456.192 167.303312 
L 456.192 103.282125 
L 383.8105 103.282125 
z
" style="fill: #ffffff"/>
  </g>
  <g id="text_15">
   <!-- repo -->
   <g transform="translate(384.8105 115.679781) scale(0.15 -0.15)">
    <use xlink:href="#DejaVuSans-72"/>
    <use xlink:href="#DejaVuSans-65" x="38.863281"/>
    <use xlink:href="#DejaVuSans-70" x="100.386719"/>
    <use xlink:href="#DejaVuSans-6f" x="163.863281"/>
   </g>
  </g>
  <g id="patch_5">
   <path d="M 385.8105 141.703312 
L 405.4105 141.703312 
L 405.4105 122.103312 
L 385.8105 122.103312 
L 385.8105 141.703312 
z
" clip-path="url(#p70d49ff078)" style="fill: none; stroke: #cccccc; stroke-linejoin: miter"/>
  </g>
  <g id="line2d_55">
   <path d="M 395.6105 131.903312 
" clip-path="url(#p70d49ff078)" style="fill: none; stroke: #1f77b4; stroke-width: 1.5; stroke-linecap: square"/>
   <defs>
    <path id="m175e10a594" d="M 0 4.874248 
C 1.292666 4.874248 2.532561 4.360667 3.446614 3.446614 
C 4.360667 2.532561 4.874248 1.292666 4.874248 0 
C 4.874248 -1.292666 4.360667 -2.532561 3.446614 -3.446614 
C 2.532561 -4.360667 1.292666 -4.874248 0 -4.874248 
C -1.292666 -4.874248 -2.532561 -4.360667 -3.446614 -3.446614 
C -4.360667 -2.532561 -4.874248 -1.292666 -4.874248 0 
C -4.874248 1.292666 -4.360667 2.532561 -3.446614 3.446614 
C -2.532561 4.360667 -1.292666 4.874248 0 4.874248 
z
" style="stroke: #415e9f; stroke-width: 0.886227"/>
   </defs>
   <g clip-path="url(#p70d49ff078)">
    <use xlink:href="#m175e10a594" x="395.6105" y="131.903312" style="fill: #415e9f; stroke: #415e9f; stroke-width: 0.886227"/>
   </g>
  </g>
  <g id="line2d_56">
   <path d="M 384.8105 131.903312 
L 406.4105 131.903312 
" clip-path="url(#p70d49ff078)" style="fill: none; stroke: #415e9f; stroke-width: 0.886227"/>
  </g>
  <g id="text_16">
   <!-- nixpkgs -->
   <g transform="translate(408.7145 135.214562) scale(0.12 -0.12)">
    <use xlink:href="#DejaVuSans-6e"/>
    <use xlink:href="#DejaVuSans-69" x="63.378906"/>
    <use xlink:href="#DejaVuSans-78" x="91.162109"/>
    <use xlink:href="#DejaVuSans-70" x="150.341797"/>
    <use xlink:href="#DejaVuSans-6b" x="213.818359"/>
    <use xlink:href="#DejaVuSans-67" x="271.728516"/>
    <use xlink:href="#DejaVuSans-73" x="335.205078"/>
   </g>
  </g>
  <g id="patch_6">
   <path d="M 385.8105 165.303312 
L 405.4105 165.303312 
L 405.4105 145.703312 
L 385.8105 145.703312 
L 385.8105 165.303312 
z
" clip-path="url(#pafe76acb28)" style="fill: none; stroke: #cccccc; stroke-linejoin: miter"/>
  </g>
  <g id="line2d_57">
   <path d="M 395.6105 155.503312 
" clip-path="url(#pafe76acb28)" style="fill: none; stroke: #1f77b4; stroke-width: 1.5; stroke-linecap: square"/>
   <defs>
    <path id="md08f51c10c" d="M 0 4.874248 
C 1.292666 4.874248 2.532561 4.360667 3.446614 3.446614 
C 4.360667 2.532561 4.874248 1.292666 4.874248 0 
C 4.874248 -1.292666 4.360667 -2.532561 3.446614 -3.446614 
C 2.532561 -4.360667 1.292666 -4.874248 0 -4.874248 
C -1.292666 -4.874248 -2.532561 -4.360667 -3.446614 -3.446614 
C -4.360667 -2.532561 -4.874248 -1.292666 -4.874248 0 
C -4.874248 1.292666 -4.360667 2.532561 -3.446614 3.446614 
C -2.532561 4.360667 -1.292666 4.874248 0 4.874248 
z
" style="stroke: #e95420; stroke-width: 0.886227"/>
   </defs>
   <g clip-path="url(#pafe76acb28)">
    <use xlink:href="#md08f51c10c" x="395.6105" y="155.503312" style="fill: #e95420; stroke: #e95420; stroke-width: 0.886227"/>
   </g>
  </g>
  <g id="line2d_58">
   <path d="M 384.8105 155.503312 
L 406.4105 155.503312 
" clip-path="url(#pafe76acb28)" style="fill: none; stroke: #e95420; stroke-width: 0.886227"/>
  </g>
  <g id="text_17">
   <!-- ubuntu -->
   <g transform="translate(408.7145 158.814562) scale(0.12 -0.12)">
    <defs>
     <path id="DejaVuSans-62" d="M 3116 1747 
Q 3116 2381 2855 2742 
Q 2594 3103 2138 3103 
Q 1681 3103 1420 2742 
Q 1159 2381 1159 1747 
Q 1159 1113 1420 752 
Q 1681 391 2138 391 
Q 2594 391 2855 752 
Q 3116 1113 3116 1747 
z
M 1159 2969 
Q 1341 3281 1617 3432 
Q 1894 3584 2278 3584 
Q 2916 3584 3314 3078 
Q 3713 2572 3713 1747 
Q 3713 922 3314 415 
Q 2916 -91 2278 -91 
Q 1894 -91 1617 61 
Q 1341 213 1159 525 
L 1159 0 
L 581 0 
L 581 4863 
L 1159 4863 
L 1159 2969 
z
" transform="scale(0.015625)"/>
    </defs>
    <use xlink:href="#DejaVuSans-75"/>
    <use xlink:href="#DejaVuSans-62" x="63.378906"/>
    <use xlink:href="#DejaVuSans-75" x="126.855469"/>
    <use xlink:href="#DejaVuSans-6e" x="190.234375"/>
    <use xlink:href="#DejaVuSans-74" x="253.613281"/>
    <use xlink:href="#DejaVuSans-75" x="292.822266"/>
   </g>
  </g>
 </g>
 <defs>
  <clipPath id="pfe9cd5f781">
   <rect x="75.293188" y="4.608" width="294.693312" height="261.369437"/>
  </clipPath>
  <clipPath id="p70d49ff078">
   <path d="M 384.8105 142.703312 
L 384.8105 121.103312 
L 406.4105 121.103312 
L 406.4105 142.703312 
"/>
  </clipPath>
  <clipPath id="pafe76acb28">
   <path d="M 384.8105 166.303312 
L 384.8105 144.703312 
L 406.4105 144.703312 
L 406.4105 166.303312 
"/>
  </clipPath>
 </defs>
</svg>
