<?xml version="1.0" encoding="utf-8" standalone="no"?>
<!DOCTYPE svg PUBLIC "-//W3C//DTD SVG 1.1//EN"
  "http://www.w3.org/Graphics/SVG/1.1/DTD/svg11.dtd">
<svg xmlns:xlink="http://www.w3.org/1999/xlink" width="460.8pt" height="345.6pt" viewBox="0 0 460.8 345.6" xmlns="http://www.w3.org/2000/svg" version="1.1">
 <metadata>
  <rdf:RDF xmlns:dc="http://purl.org/dc/elements/1.1/" xmlns:cc="http://creativecommons.org/ns#" xmlns:rdf="http://www.w3.org/1999/02/22-rdf-syntax-ns#">
   <cc:Work>
    <dc:type rdf:resource="http://purl.org/dc/dcmitype/StillImage"/>
    <dc:date>1980-01-01T00:00:00+00:00</dc:date>
    <dc:format>image/svg+xml</dc:format>
    <dc:creator>
     <cc:Agent>
      <dc:title>Matplotlib v3.9.2, https://matplotlib.org/</dc:title>
     </cc:Agent>
    </dc:creator>
   </cc:Work>
  </rdf:RDF>
 </metadata>
 <defs>
  <style type="text/css">*{stroke-linejoin: round; stroke-linecap: butt}</style>
 </defs>
 <g id="figure_1">
  <g id="patch_1">
   <path d="M 0 345.6 
L 460.8 345.6 
L 460.8 0 
L 0 0 
z
" style="fill: #ffffff; stroke: #ffffff; stroke-linejoin: miter"/>
  </g>
  <g id="axes_1">
   <g id="patch_2">
    <path d="M 67.658188 265.977437 
L 341.297688 265.977437 
L 341.297688 4.608 
L 67.658188 4.608 
z
" style="fill: #ffffff"/>
   </g>
   <g id="matplotlib.axis_1">
    <g id="xtick_1">
     <g id="line2d_1">
      <path d="M 92.630926 265.977437 
L 92.630926 4.608 
" clip-path="url(#pd00bc7a526)" style="fill: none; stroke: #c0c0c0; stroke-linecap: square"/>
     </g>
     <g id="line2d_2">
      <path d="M 92.630926 265.977437 
" style="fill: none; stroke: #333333; stroke-width: 1.5; stroke-linecap: square"/>
      <defs>
       <path id="m7b1cada783" d="M 0 0 
L 0 3.75 
" style="stroke: #333333"/>
      </defs>
      <g>
       <use xlink:href="#m7b1cada783" x="92.630926" y="265.977437" style="fill: #333333; stroke: #333333"/>
      </g>
     </g>
     <g id="text_1">
      <!-- 2021-01 -->
      <g style="fill: #4d4d4d" transform="translate(95.942176 321.866812) rotate(-90) scale(0.12 -0.12)">
       <defs>
        <path id="DejaVuSans-32" d="M 1228 531 
L 3431 531 
L 3431 0 
L 469 0 
L 469 531 
Q 828 903 1448 1529 
Q 2069 2156 2228 2338 
Q 2531 2678 2651 2914 
Q 2772 3150 2772 3378 
Q 2772 3750 2511 3984 
Q 2250 4219 1831 4219 
Q 1534 4219 1204 4116 
Q 875 4013 500 3803 
L 500 4441 
Q 881 4594 1212 4672 
Q 1544 4750 1819 4750 
Q 2544 4750 2975 4387 
Q 3406 4025 3406 3419 
Q 3406 3131 3298 2873 
Q 3191 2616 2906 2266 
Q 2828 2175 2409 1742 
Q 1991 1309 1228 531 
z
" transform="scale(0.015625)"/>
        <path id="DejaVuSans-30" d="M 2034 4250 
Q 1547 4250 1301 3770 
Q 1056 3291 1056 2328 
Q 1056 1369 1301 889 
Q 1547 409 2034 409 
Q 2525 409 2770 889 
Q 3016 1369 3016 2328 
Q 3016 3291 2770 3770 
Q 2525 4250 2034 4250 
z
M 2034 4750 
Q 2819 4750 3233 4129 
Q 3647 3509 3647 2328 
Q 3647 1150 3233 529 
Q 2819 -91 2034 -91 
Q 1250 -91 836 529 
Q 422 1150 422 2328 
Q 422 3509 836 4129 
Q 1250 4750 2034 4750 
z
" transform="scale(0.015625)"/>
        <path id="DejaVuSans-31" d="M 794 531 
L 1825 531 
L 1825 4091 
L 703 3866 
L 703 4441 
L 1819 4666 
L 2450 4666 
L 2450 531 
L 3481 531 
L 3481 0 
L 794 0 
L 794 531 
z
" transform="scale(0.015625)"/>
        <path id="DejaVuSans-2d" d="M 313 2009 
L 1997 2009 
L 1997 1497 
L 313 1497 
L 313 2009 
z
" transform="scale(0.015625)"/>
       </defs>
       <use xlink:href="#DejaVuSans-32"/>
       <use xlink:href="#DejaVuSans-30" x="63.623047"/>
       <use xlink:href="#DejaVuSans-32" x="127.246094"/>
       <use xlink:href="#DejaVuSans-31" x="190.869141"/>
       <use xlink:href="#DejaVuSans-2d" x="254.492188"/>
       <use xlink:href="#DejaVuSans-30" x="290.576172"/>
       <use xlink:href="#DejaVuSans-31" x="354.199219"/>
      </g>
     </g>
    </g>
    <g id="xtick_2">
     <g id="line2d_3">
      <path d="M 127.534907 265.977437 
L 127.534907 4.608 
" clip-path="url(#pd00bc7a526)" style="fill: none; stroke: #c0c0c0; stroke-linecap: square"/>
     </g>
     <g id="line2d_4">
      <path d="M 127.534907 265.977437 
" style="fill: none; stroke: #333333; stroke-width: 1.5; stroke-linecap: square"/>
      <g>
       <use xlink:href="#m7b1cada783" x="127.534907" y="265.977437" style="fill: #333333; stroke: #333333"/>
      </g>
     </g>
     <g id="text_2">
      <!-- 2021-07 -->
      <g style="fill: #4d4d4d" transform="translate(130.846157 321.866812) rotate(-90) scale(0.12 -0.12)">
       <defs>
        <path id="DejaVuSans-37" d="M 525 4666 
L 3525 4666 
L 3525 4397 
L 1831 0 
L 1172 0 
L 2766 4134 
L 525 4134 
L 525 4666 
z
" transform="scale(0.015625)"/>
       </defs>
       <use xlink:href="#DejaVuSans-32"/>
       <use xlink:href="#DejaVuSans-30" x="63.623047"/>
       <use xlink:href="#DejaVuSans-32" x="127.246094"/>
       <use xlink:href="#DejaVuSans-31" x="190.869141"/>
       <use xlink:href="#DejaVuSans-2d" x="254.492188"/>
       <use xlink:href="#DejaVuSans-30" x="290.576172"/>
       <use xlink:href="#DejaVuSans-37" x="354.199219"/>
      </g>
     </g>
    </g>
    <g id="xtick_3">
     <g id="line2d_5">
      <path d="M 163.017407 265.977437 
L 163.017407 4.608 
" clip-path="url(#pd00bc7a526)" style="fill: none; stroke: #c0c0c0; stroke-linecap: square"/>
     </g>
     <g id="line2d_6">
      <path d="M 163.017407 265.977437 
" style="fill: none; stroke: #333333; stroke-width: 1.5; stroke-linecap: square"/>
      <g>
       <use xlink:href="#m7b1cada783" x="163.017407" y="265.977437" style="fill: #333333; stroke: #333333"/>
      </g>
     </g>
     <g id="text_3">
      <!-- 2022-01 -->
      <g style="fill: #4d4d4d" transform="translate(166.328657 321.866812) rotate(-90) scale(0.12 -0.12)">
       <use xlink:href="#DejaVuSans-32"/>
       <use xlink:href="#DejaVuSans-30" x="63.623047"/>
       <use xlink:href="#DejaVuSans-32" x="127.246094"/>
       <use xlink:href="#DejaVuSans-32" x="190.869141"/>
       <use xlink:href="#DejaVuSans-2d" x="254.492188"/>
       <use xlink:href="#DejaVuSans-30" x="290.576172"/>
       <use xlink:href="#DejaVuSans-31" x="354.199219"/>
      </g>
     </g>
    </g>
    <g id="xtick_4">
     <g id="line2d_7">
      <path d="M 197.921389 265.977437 
L 197.921389 4.608 
" clip-path="url(#pd00bc7a526)" style="fill: none; stroke: #c0c0c0; stroke-linecap: square"/>
     </g>
     <g id="line2d_8">
      <path d="M 197.921389 265.977437 
" style="fill: none; stroke: #333333; stroke-width: 1.5; stroke-linecap: square"/>
      <g>
       <use xlink:href="#m7b1cada783" x="197.921389" y="265.977437" style="fill: #333333; stroke: #333333"/>
      </g>
     </g>
     <g id="text_4">
      <!-- 2022-07 -->
      <g style="fill: #4d4d4d" transform="translate(201.232639 321.866812) rotate(-90) scale(0.12 -0.12)">
       <use xlink:href="#DejaVuSans-32"/>
       <use xlink:href="#DejaVuSans-30" x="63.623047"/>
       <use xlink:href="#DejaVuSans-32" x="127.246094"/>
       <use xlink:href="#DejaVuSans-32" x="190.869141"/>
       <use xlink:href="#DejaVuSans-2d" x="254.492188"/>
       <use xlink:href="#DejaVuSans-30" x="290.576172"/>
       <use xlink:href="#DejaVuSans-37" x="354.199219"/>
      </g>
     </g>
    </g>
    <g id="xtick_5">
     <g id="line2d_9">
      <path d="M 233.403889 265.977437 
L 233.403889 4.608 
" clip-path="url(#pd00bc7a526)" style="fill: none; stroke: #c0c0c0; stroke-linecap: square"/>
     </g>
     <g id="line2d_10">
      <path d="M 233.403889 265.977437 
" style="fill: none; stroke: #333333; stroke-width: 1.5; stroke-linecap: square"/>
      <g>
       <use xlink:href="#m7b1cada783" x="233.403889" y="265.977437" style="fill: #333333; stroke: #333333"/>
      </g>
     </g>
     <g id="text_5">
      <!-- 2023-01 -->
      <g style="fill: #4d4d4d" transform="translate(236.715139 321.866812) rotate(-90) scale(0.12 -0.12)">
       <defs>
        <path id="DejaVuSans-33" d="M 2597 2516 
Q 3050 2419 3304 2112 
Q 3559 1806 3559 1356 
Q 3559 666 3084 287 
Q 2609 -91 1734 -91 
Q 1441 -91 1130 -33 
Q 819 25 488 141 
L 488 750 
Q 750 597 1062 519 
Q 1375 441 1716 441 
Q 2309 441 2620 675 
Q 2931 909 2931 1356 
Q 2931 1769 2642 2001 
Q 2353 2234 1838 2234 
L 1294 2234 
L 1294 2753 
L 1863 2753 
Q 2328 2753 2575 2939 
Q 2822 3125 2822 3475 
Q 2822 3834 2567 4026 
Q 2313 4219 1838 4219 
Q 1578 4219 1281 4162 
Q 984 4106 628 3988 
L 628 4550 
Q 988 4650 1302 4700 
Q 1616 4750 1894 4750 
Q 2613 4750 3031 4423 
Q 3450 4097 3450 3541 
Q 3450 3153 3228 2886 
Q 3006 2619 2597 2516 
z
" transform="scale(0.015625)"/>
       </defs>
       <use xlink:href="#DejaVuSans-32"/>
       <use xlink:href="#DejaVuSans-30" x="63.623047"/>
       <use xlink:href="#DejaVuSans-32" x="127.246094"/>
       <use xlink:href="#DejaVuSans-33" x="190.869141"/>
       <use xlink:href="#DejaVuSans-2d" x="254.492188"/>
       <use xlink:href="#DejaVuSans-30" x="290.576172"/>
       <use xlink:href="#DejaVuSans-31" x="354.199219"/>
      </g>
     </g>
    </g>
    <g id="xtick_6">
     <g id="line2d_11">
      <path d="M 268.30787 265.977437 
L 268.30787 4.608 
" clip-path="url(#pd00bc7a526)" style="fill: none; stroke: #c0c0c0; stroke-linecap: square"/>
     </g>
     <g id="line2d_12">
      <path d="M 268.30787 265.977437 
" style="fill: none; stroke: #333333; stroke-width: 1.5; stroke-linecap: square"/>
      <g>
       <use xlink:href="#m7b1cada783" x="268.30787" y="265.977437" style="fill: #333333; stroke: #333333"/>
      </g>
     </g>
     <g id="text_6">
      <!-- 2023-07 -->
      <g style="fill: #4d4d4d" transform="translate(271.61912 321.866812) rotate(-90) scale(0.12 -0.12)">
       <use xlink:href="#DejaVuSans-32"/>
       <use xlink:href="#DejaVuSans-30" x="63.623047"/>
       <use xlink:href="#DejaVuSans-32" x="127.246094"/>
       <use xlink:href="#DejaVuSans-33" x="190.869141"/>
       <use xlink:href="#DejaVuSans-2d" x="254.492188"/>
       <use xlink:href="#DejaVuSans-30" x="290.576172"/>
       <use xlink:href="#DejaVuSans-37" x="354.199219"/>
      </g>
     </g>
    </g>
    <g id="xtick_7">
     <g id="line2d_13">
      <path d="M 303.790371 265.977437 
L 303.790371 4.608 
" clip-path="url(#pd00bc7a526)" style="fill: none; stroke: #c0c0c0; stroke-linecap: square"/>
     </g>
     <g id="line2d_14">
      <path d="M 303.790371 265.977437 
" style="fill: none; stroke: #333333; stroke-width: 1.5; stroke-linecap: square"/>
      <g>
       <use xlink:href="#m7b1cada783" x="303.790371" y="265.977437" style="fill: #333333; stroke: #333333"/>
      </g>
     </g>
     <g id="text_7">
      <!-- 2024-01 -->
      <g style="fill: #4d4d4d" transform="translate(307.101621 321.866812) rotate(-90) scale(0.12 -0.12)">
       <defs>
        <path id="DejaVuSans-34" d="M 2419 4116 
L 825 1625 
L 2419 1625 
L 2419 4116 
z
M 2253 4666 
L 3047 4666 
L 3047 1625 
L 3713 1625 
L 3713 1100 
L 3047 1100 
L 3047 0 
L 2419 0 
L 2419 1100 
L 313 1100 
L 313 1709 
L 2253 4666 
z
" transform="scale(0.015625)"/>
       </defs>
       <use xlink:href="#DejaVuSans-32"/>
       <use xlink:href="#DejaVuSans-30" x="63.623047"/>
       <use xlink:href="#DejaVuSans-32" x="127.246094"/>
       <use xlink:href="#DejaVuSans-34" x="190.869141"/>
       <use xlink:href="#DejaVuSans-2d" x="254.492188"/>
       <use xlink:href="#DejaVuSans-30" x="290.576172"/>
       <use xlink:href="#DejaVuSans-31" x="354.199219"/>
      </g>
     </g>
    </g>
    <g id="xtick_8">
     <g id="line2d_15">
      <path d="M 338.887192 265.977437 
L 338.887192 4.608 
" clip-path="url(#pd00bc7a526)" style="fill: none; stroke: #c0c0c0; stroke-linecap: square"/>
     </g>
     <g id="line2d_16">
      <path d="M 338.887192 265.977437 
" style="fill: none; stroke: #333333; stroke-width: 1.5; stroke-linecap: square"/>
      <g>
       <use xlink:href="#m7b1cada783" x="338.887192" y="265.977437" style="fill: #333333; stroke: #333333"/>
      </g>
     </g>
     <g id="text_8">
      <!-- 2024-07 -->
      <g style="fill: #4d4d4d" transform="translate(342.198442 321.866812) rotate(-90) scale(0.12 -0.12)">
       <use xlink:href="#DejaVuSans-32"/>
       <use xlink:href="#DejaVuSans-30" x="63.623047"/>
       <use xlink:href="#DejaVuSans-32" x="127.246094"/>
       <use xlink:href="#DejaVuSans-34" x="190.869141"/>
       <use xlink:href="#DejaVuSans-2d" x="254.492188"/>
       <use xlink:href="#DejaVuSans-30" x="290.576172"/>
       <use xlink:href="#DejaVuSans-37" x="354.199219"/>
      </g>
     </g>
    </g>
    <g id="xtick_9">
     <g id="line2d_17">
      <path d="M 110.082916 265.977437 
L 110.082916 4.608 
" clip-path="url(#pd00bc7a526)" style="fill: none; stroke: #d0d0d0; stroke-width: 0.5; stroke-linecap: square"/>
     </g>
     <g id="line2d_18">
      <path d="M 110.082916 265.977437 
" style="fill: none; stroke: #333333; stroke-width: 1.5; stroke-linecap: square"/>
      <defs>
       <path id="mbddd2798b0" d="M 0 0 
L 0 1.875 
" style="stroke: #333333"/>
      </defs>
      <g>
       <use xlink:href="#mbddd2798b0" x="110.082916" y="265.977437" style="fill: #333333; stroke: #333333"/>
      </g>
     </g>
    </g>
    <g id="xtick_10">
     <g id="line2d_19">
      <path d="M 145.276157 265.977437 
L 145.276157 4.608 
" clip-path="url(#pd00bc7a526)" style="fill: none; stroke: #d0d0d0; stroke-width: 0.5; stroke-linecap: square"/>
     </g>
     <g id="line2d_20">
      <path d="M 145.276157 265.977437 
" style="fill: none; stroke: #333333; stroke-width: 1.5; stroke-linecap: square"/>
      <g>
       <use xlink:href="#mbddd2798b0" x="145.276157" y="265.977437" style="fill: #333333; stroke: #333333"/>
      </g>
     </g>
    </g>
    <g id="xtick_11">
     <g id="line2d_21">
      <path d="M 180.469398 265.977437 
L 180.469398 4.608 
" clip-path="url(#pd00bc7a526)" style="fill: none; stroke: #d0d0d0; stroke-width: 0.5; stroke-linecap: square"/>
     </g>
     <g id="line2d_22">
      <path d="M 180.469398 265.977437 
" style="fill: none; stroke: #333333; stroke-width: 1.5; stroke-linecap: square"/>
      <g>
       <use xlink:href="#mbddd2798b0" x="180.469398" y="265.977437" style="fill: #333333; stroke: #333333"/>
      </g>
     </g>
    </g>
    <g id="xtick_12">
     <g id="line2d_23">
      <path d="M 215.662639 265.977437 
L 215.662639 4.608 
" clip-path="url(#pd00bc7a526)" style="fill: none; stroke: #d0d0d0; stroke-width: 0.5; stroke-linecap: square"/>
     </g>
     <g id="line2d_24">
      <path d="M 215.662639 265.977437 
" style="fill: none; stroke: #333333; stroke-width: 1.5; stroke-linecap: square"/>
      <g>
       <use xlink:href="#mbddd2798b0" x="215.662639" y="265.977437" style="fill: #333333; stroke: #333333"/>
      </g>
     </g>
    </g>
    <g id="xtick_13">
     <g id="line2d_25">
      <path d="M 250.85588 265.977437 
L 250.85588 4.608 
" clip-path="url(#pd00bc7a526)" style="fill: none; stroke: #d0d0d0; stroke-width: 0.5; stroke-linecap: square"/>
     </g>
     <g id="line2d_26">
      <path d="M 250.85588 265.977437 
" style="fill: none; stroke: #333333; stroke-width: 1.5; stroke-linecap: square"/>
      <g>
       <use xlink:href="#mbddd2798b0" x="250.85588" y="265.977437" style="fill: #333333; stroke: #333333"/>
      </g>
     </g>
    </g>
    <g id="xtick_14">
     <g id="line2d_27">
      <path d="M 286.04912 265.977437 
L 286.04912 4.608 
" clip-path="url(#pd00bc7a526)" style="fill: none; stroke: #d0d0d0; stroke-width: 0.5; stroke-linecap: square"/>
     </g>
     <g id="line2d_28">
      <path d="M 286.04912 265.977437 
" style="fill: none; stroke: #333333; stroke-width: 1.5; stroke-linecap: square"/>
      <g>
       <use xlink:href="#mbddd2798b0" x="286.04912" y="265.977437" style="fill: #333333; stroke: #333333"/>
      </g>
     </g>
    </g>
    <g id="xtick_15">
     <g id="line2d_29">
      <path d="M 321.338781 265.977437 
L 321.338781 4.608 
" clip-path="url(#pd00bc7a526)" style="fill: none; stroke: #d0d0d0; stroke-width: 0.5; stroke-linecap: square"/>
     </g>
     <g id="line2d_30">
      <path d="M 321.338781 265.977437 
" style="fill: none; stroke: #333333; stroke-width: 1.5; stroke-linecap: square"/>
      <g>
       <use xlink:href="#mbddd2798b0" x="321.338781" y="265.977437" style="fill: #333333; stroke: #333333"/>
      </g>
     </g>
    </g>
   </g>
   <g id="matplotlib.axis_2">
    <g id="ytick_1">
     <g id="line2d_31">
      <path d="M 67.658188 231.037522 
L 341.297688 231.037522 
" clip-path="url(#pd00bc7a526)" style="fill: none; stroke: #c0c0c0; stroke-linecap: square"/>
     </g>
     <g id="line2d_32">
      <path d="M 67.658188 231.037522 
" style="fill: none; stroke: #333333; stroke-width: 1.5; stroke-linecap: square"/>
      <defs>
       <path id="mb2fe120868" d="M 0 0 
L -3.75 0 
" style="stroke: #333333"/>
      </defs>
      <g>
       <use xlink:href="#mb2fe120868" x="67.658188" y="231.037522" style="fill: #333333; stroke: #333333"/>
      </g>
     </g>
     <g id="text_9">
      <!-- 20000 -->
      <g style="fill: #4d4d4d" transform="translate(23.733188 235.596585) scale(0.12 -0.12)">
       <use xlink:href="#DejaVuSans-32"/>
       <use xlink:href="#DejaVuSans-30" x="63.623047"/>
       <use xlink:href="#DejaVuSans-30" x="127.246094"/>
       <use xlink:href="#DejaVuSans-30" x="190.869141"/>
       <use xlink:href="#DejaVuSans-30" x="254.492188"/>
      </g>
     </g>
    </g>
    <g id="ytick_2">
     <g id="line2d_33">
      <path d="M 67.658188 180.579128 
L 341.297688 180.579128 
" clip-path="url(#pd00bc7a526)" style="fill: none; stroke: #c0c0c0; stroke-linecap: square"/>
     </g>
     <g id="line2d_34">
      <path d="M 67.658188 180.579128 
" style="fill: none; stroke: #333333; stroke-width: 1.5; stroke-linecap: square"/>
      <g>
       <use xlink:href="#mb2fe120868" x="67.658188" y="180.579128" style="fill: #333333; stroke: #333333"/>
      </g>
     </g>
     <g id="text_10">
      <!-- 21000 -->
      <g style="fill: #4d4d4d" transform="translate(23.733188 185.13819) scale(0.12 -0.12)">
       <use xlink:href="#DejaVuSans-32"/>
       <use xlink:href="#DejaVuSans-31" x="63.623047"/>
       <use xlink:href="#DejaVuSans-30" x="127.246094"/>
       <use xlink:href="#DejaVuSans-30" x="190.869141"/>
       <use xlink:href="#DejaVuSans-30" x="254.492188"/>
      </g>
     </g>
    </g>
    <g id="ytick_3">
     <g id="line2d_35">
      <path d="M 67.658188 130.120733 
L 341.297688 130.120733 
" clip-path="url(#pd00bc7a526)" style="fill: none; stroke: #c0c0c0; stroke-linecap: square"/>
     </g>
     <g id="line2d_36">
      <path d="M 67.658188 130.120733 
" style="fill: none; stroke: #333333; stroke-width: 1.5; stroke-linecap: square"/>
      <g>
       <use xlink:href="#mb2fe120868" x="67.658188" y="130.120733" style="fill: #333333; stroke: #333333"/>
      </g>
     </g>
     <g id="text_11">
      <!-- 22000 -->
      <g style="fill: #4d4d4d" transform="translate(23.733188 134.679796) scale(0.12 -0.12)">
       <use xlink:href="#DejaVuSans-32"/>
       <use xlink:href="#DejaVuSans-32" x="63.623047"/>
       <use xlink:href="#DejaVuSans-30" x="127.246094"/>
       <use xlink:href="#DejaVuSans-30" x="190.869141"/>
       <use xlink:href="#DejaVuSans-30" x="254.492188"/>
      </g>
     </g>
    </g>
    <g id="ytick_4">
     <g id="line2d_37">
      <path d="M 67.658188 79.662339 
L 341.297688 79.662339 
" clip-path="url(#pd00bc7a526)" style="fill: none; stroke: #c0c0c0; stroke-linecap: square"/>
     </g>
     <g id="line2d_38">
      <path d="M 67.658188 79.662339 
" style="fill: none; stroke: #333333; stroke-width: 1.5; stroke-linecap: square"/>
      <g>
       <use xlink:href="#mb2fe120868" x="67.658188" y="79.662339" style="fill: #333333; stroke: #333333"/>
      </g>
     </g>
     <g id="text_12">
      <!-- 23000 -->
      <g style="fill: #4d4d4d" transform="translate(23.733188 84.221401) scale(0.12 -0.12)">
       <use xlink:href="#DejaVuSans-32"/>
       <use xlink:href="#DejaVuSans-33" x="63.623047"/>
       <use xlink:href="#DejaVuSans-30" x="127.246094"/>
       <use xlink:href="#DejaVuSans-30" x="190.869141"/>
       <use xlink:href="#DejaVuSans-30" x="254.492188"/>
      </g>
     </g>
    </g>
    <g id="ytick_5">
     <g id="line2d_39">
      <path d="M 67.658188 29.203944 
L 341.297688 29.203944 
" clip-path="url(#pd00bc7a526)" style="fill: none; stroke: #c0c0c0; stroke-linecap: square"/>
     </g>
     <g id="line2d_40">
      <path d="M 67.658188 29.203944 
" style="fill: none; stroke: #333333; stroke-width: 1.5; stroke-linecap: square"/>
      <g>
       <use xlink:href="#mb2fe120868" x="67.658188" y="29.203944" style="fill: #333333; stroke: #333333"/>
      </g>
     </g>
     <g id="text_13">
      <!-- 24000 -->
      <g style="fill: #4d4d4d" transform="translate(23.733188 33.763007) scale(0.12 -0.12)">
       <use xlink:href="#DejaVuSans-32"/>
       <use xlink:href="#DejaVuSans-34" x="63.623047"/>
       <use xlink:href="#DejaVuSans-30" x="127.246094"/>
       <use xlink:href="#DejaVuSans-30" x="190.869141"/>
       <use xlink:href="#DejaVuSans-30" x="254.492188"/>
      </g>
     </g>
    </g>
    <g id="ytick_6">
     <g id="line2d_41">
      <path d="M 67.658188 256.266719 
L 341.297688 256.266719 
" clip-path="url(#pd00bc7a526)" style="fill: none; stroke: #d0d0d0; stroke-width: 0.5; stroke-linecap: square"/>
     </g>
     <g id="line2d_42">
      <path d="M 67.658188 256.266719 
" style="fill: none; stroke: #333333; stroke-width: 1.5; stroke-linecap: square"/>
      <defs>
       <path id="m98fde0f66a" d="M 0 0 
L -1.875 0 
" style="stroke: #333333"/>
      </defs>
      <g>
       <use xlink:href="#m98fde0f66a" x="67.658188" y="256.266719" style="fill: #333333; stroke: #333333"/>
      </g>
     </g>
    </g>
    <g id="ytick_7">
     <g id="line2d_43">
      <path d="M 67.658188 205.808325 
L 341.297688 205.808325 
" clip-path="url(#pd00bc7a526)" style="fill: none; stroke: #d0d0d0; stroke-width: 0.5; stroke-linecap: square"/>
     </g>
     <g id="line2d_44">
      <path d="M 67.658188 205.808325 
" style="fill: none; stroke: #333333; stroke-width: 1.5; stroke-linecap: square"/>
      <g>
       <use xlink:href="#m98fde0f66a" x="67.658188" y="205.808325" style="fill: #333333; stroke: #333333"/>
      </g>
     </g>
    </g>
    <g id="ytick_8">
     <g id="line2d_45">
      <path d="M 67.658188 155.349931 
L 341.297688 155.349931 
" clip-path="url(#pd00bc7a526)" style="fill: none; stroke: #d0d0d0; stroke-width: 0.5; stroke-linecap: square"/>
     </g>
     <g id="line2d_46">
      <path d="M 67.658188 155.349931 
" style="fill: none; stroke: #333333; stroke-width: 1.5; stroke-linecap: square"/>
      <g>
       <use xlink:href="#m98fde0f66a" x="67.658188" y="155.349931" style="fill: #333333; stroke: #333333"/>
      </g>
     </g>
    </g>
    <g id="ytick_9">
     <g id="line2d_47">
      <path d="M 67.658188 104.891536 
L 341.297688 104.891536 
" clip-path="url(#pd00bc7a526)" style="fill: none; stroke: #d0d0d0; stroke-width: 0.5; stroke-linecap: square"/>
     </g>
     <g id="line2d_48">
      <path d="M 67.658188 104.891536 
" style="fill: none; stroke: #333333; stroke-width: 1.5; stroke-linecap: square"/>
      <g>
       <use xlink:href="#m98fde0f66a" x="67.658188" y="104.891536" style="fill: #333333; stroke: #333333"/>
      </g>
     </g>
    </g>
    <g id="ytick_10">
     <g id="line2d_49">
      <path d="M 67.658188 54.433142 
L 341.297688 54.433142 
" clip-path="url(#pd00bc7a526)" style="fill: none; stroke: #d0d0d0; stroke-width: 0.5; stroke-linecap: square"/>
     </g>
     <g id="line2d_50">
      <path d="M 67.658188 54.433142 
" style="fill: none; stroke: #333333; stroke-width: 1.5; stroke-linecap: square"/>
      <g>
       <use xlink:href="#m98fde0f66a" x="67.658188" y="54.433142" style="fill: #333333; stroke: #333333"/>
      </g>
     </g>
    </g>
   </g>
   <g id="line2d_51">
    <path d="M 80.096347 254.097009 
L 81.446224 232.097149 
L 119.242801 174.625037 
L 119.43564 179.469043 
L 120.785518 178.813084 
L 150.097149 136.428033 
L 150.289989 156.61139 
L 151.639866 135.418865 
L 185.19397 102.116324 
L 185.38681 121.593265 
L 186.736687 102.065866 
L 187.893725 114.276797 
L 221.640669 103.983285 
L 221.833508 122.299682 
L 223.183386 99.795238 
L 255.387612 72.598164 
L 255.580452 92.731063 
L 256.930329 71.689913 
L 290.484433 46.965299 
L 290.677273 68.914701 
L 292.02715 47.419425 
L 326.931132 17.598514 
L 327.123971 39.295623 
L 328.473849 16.589346 
L 328.859528 16.488429 
" clip-path="url(#pd00bc7a526)" style="fill: none; stroke: #000000; stroke-width: 0.886227"/>
   </g>
   <g id="PathCollection_1">
    <path d="M 328.859528 19.590223 
C 329.682134 19.590223 330.471158 19.263399 331.052828 18.681729 
C 331.634498 18.100059 331.961323 17.311034 331.961323 16.488429 
C 331.961323 15.665824 331.634498 14.876799 331.052828 14.295129 
C 330.471158 13.713459 329.682134 13.386635 328.859528 13.386635 
C 328.036923 13.386635 327.247899 13.713459 326.666229 14.295129 
C 326.084559 14.876799 325.757734 15.665824 325.757734 16.488429 
C 325.757734 17.311034 326.084559 18.100059 326.666229 18.681729 
C 327.247899 19.263399 328.036923 19.590223 328.859528 19.590223 
z
" clip-path="url(#pd00bc7a526)" style="fill: #db57b2; stroke: #db57b2; stroke-width: 0.886227"/>
    <path d="M 328.473849 19.69114 
C 329.296455 19.69114 330.085479 19.364315 330.667149 18.782646 
C 331.248819 18.200976 331.575643 17.411951 331.575643 16.589346 
C 331.575643 15.76674 331.248819 14.977716 330.667149 14.396046 
C 330.085479 13.814376 329.296455 13.487552 328.473849 13.487552 
C 327.651244 13.487552 326.862219 13.814376 326.280549 14.396046 
C 325.698879 14.977716 325.372055 15.76674 325.372055 16.589346 
C 325.372055 17.411951 325.698879 18.200976 326.280549 18.782646 
C 326.862219 19.364315 327.651244 19.69114 328.473849 19.69114 
z
" clip-path="url(#pd00bc7a526)" style="fill: #db57b2; stroke: #db57b2; stroke-width: 0.886227"/>
    <path d="M 327.123971 42.397418 
C 327.946577 42.397418 328.735601 42.070593 329.317271 41.488923 
C 329.898941 40.907253 330.225766 40.118229 330.225766 39.295623 
C 330.225766 38.473018 329.898941 37.683993 329.317271 37.102324 
C 328.735601 36.520654 327.946577 36.193829 327.123971 36.193829 
C 326.301366 36.193829 325.512341 36.520654 324.930672 37.102324 
C 324.349002 37.683993 324.022177 38.473018 324.022177 39.295623 
C 324.022177 40.118229 324.349002 40.907253 324.930672 41.488923 
C 325.512341 42.070593 326.301366 42.397418 327.123971 42.397418 
z
" clip-path="url(#pd00bc7a526)" style="fill: #db57b2; stroke: #db57b2; stroke-width: 0.886227"/>
    <path d="M 326.931132 20.700308 
C 327.753737 20.700308 328.542762 20.373483 329.124431 19.791813 
C 329.706101 19.210144 330.032926 18.421119 330.032926 17.598514 
C 330.032926 16.775908 329.706101 15.986884 329.124431 15.405214 
C 328.542762 14.823544 327.753737 14.496719 326.931132 14.496719 
C 326.108526 14.496719 325.319502 14.823544 324.737832 15.405214 
C 324.156162 15.986884 323.829337 16.775908 323.829337 17.598514 
C 323.829337 18.421119 324.156162 19.210144 324.737832 19.791813 
C 325.319502 20.373483 326.108526 20.700308 326.931132 20.700308 
z
" clip-path="url(#pd00bc7a526)" style="fill: #a157db; stroke: #a157db; stroke-width: 0.886227"/>
    <path d="M 292.02715 50.521219 
C 292.849756 50.521219 293.63878 50.194394 294.22045 49.612725 
C 294.80212 49.031055 295.128945 48.24203 295.128945 47.419425 
C 295.128945 46.596819 294.80212 45.807795 294.22045 45.226125 
C 293.63878 44.644455 292.849756 44.317631 292.02715 44.317631 
C 291.204545 44.317631 290.41552 44.644455 289.833851 45.226125 
C 289.252181 45.807795 288.925356 46.596819 288.925356 47.419425 
C 288.925356 48.24203 289.252181 49.031055 289.833851 49.612725 
C 290.41552 50.194394 291.204545 50.521219 292.02715 50.521219 
z
" clip-path="url(#pd00bc7a526)" style="fill: #a157db; stroke: #a157db; stroke-width: 0.886227"/>
    <path d="M 290.677273 72.016495 
C 291.499878 72.016495 292.288902 71.68967 292.870572 71.108001 
C 293.452242 70.526331 293.779067 69.737306 293.779067 68.914701 
C 293.779067 68.092095 293.452242 67.303071 292.870572 66.721401 
C 292.288902 66.139731 291.499878 65.812907 290.677273 65.812907 
C 289.854667 65.812907 289.065643 66.139731 288.483973 66.721401 
C 287.902303 67.303071 287.575478 68.092095 287.575478 68.914701 
C 287.575478 69.737306 287.902303 70.526331 288.483973 71.108001 
C 289.065643 71.68967 289.854667 72.016495 290.677273 72.016495 
z
" clip-path="url(#pd00bc7a526)" style="fill: #a157db; stroke: #a157db; stroke-width: 0.886227"/>
    <path d="M 290.484433 50.067093 
C 291.307038 50.067093 292.096063 49.740269 292.677733 49.158599 
C 293.259403 48.576929 293.586227 47.787905 293.586227 46.965299 
C 293.586227 46.142694 293.259403 45.353669 292.677733 44.771999 
C 292.096063 44.19033 291.307038 43.863505 290.484433 43.863505 
C 289.661827 43.863505 288.872803 44.19033 288.291133 44.771999 
C 287.709463 45.353669 287.382639 46.142694 287.382639 46.965299 
C 287.382639 47.787905 287.709463 48.576929 288.291133 49.158599 
C 288.872803 49.740269 289.661827 50.067093 290.484433 50.067093 
z
" clip-path="url(#pd00bc7a526)" style="fill: #5770db; stroke: #5770db; stroke-width: 0.886227"/>
    <path d="M 256.930329 74.791707 
C 257.752935 74.791707 258.541959 74.464882 259.123629 73.883212 
C 259.705299 73.301542 260.032124 72.512518 260.032124 71.689913 
C 260.032124 70.867307 259.705299 70.078283 259.123629 69.496613 
C 258.541959 68.914943 257.752935 68.588118 256.930329 68.588118 
C 256.107724 68.588118 255.318699 68.914943 254.73703 69.496613 
C 254.15536 70.078283 253.828535 70.867307 253.828535 71.689913 
C 253.828535 72.512518 254.15536 73.301542 254.73703 73.883212 
C 255.318699 74.464882 256.107724 74.791707 256.930329 74.791707 
z
" clip-path="url(#pd00bc7a526)" style="fill: #5770db; stroke: #5770db; stroke-width: 0.886227"/>
    <path d="M 255.580452 95.832857 
C 256.403057 95.832857 257.192081 95.506033 257.773751 94.924363 
C 258.355421 94.342693 258.682246 93.553668 258.682246 92.731063 
C 258.682246 91.908458 258.355421 91.119433 257.773751 90.537763 
C 257.192081 89.956093 256.403057 89.629269 255.580452 89.629269 
C 254.757846 89.629269 253.968822 89.956093 253.387152 90.537763 
C 252.805482 91.119433 252.478657 91.908458 252.478657 92.731063 
C 252.478657 93.553668 252.805482 94.342693 253.387152 94.924363 
C 253.968822 95.506033 254.757846 95.832857 255.580452 95.832857 
z
" clip-path="url(#pd00bc7a526)" style="fill: #5770db; stroke: #5770db; stroke-width: 0.886227"/>
    <path d="M 255.387612 75.699958 
C 256.210217 75.699958 256.999242 75.373133 257.580912 74.791463 
C 258.162582 74.209793 258.489406 73.420769 258.489406 72.598164 
C 258.489406 71.775558 258.162582 70.986534 257.580912 70.404864 
C 256.999242 69.823194 256.210217 69.496369 255.387612 69.496369 
C 254.565006 69.496369 253.775982 69.823194 253.194312 70.404864 
C 252.612642 70.986534 252.285818 71.775558 252.285818 72.598164 
C 252.285818 73.420769 252.612642 74.209793 253.194312 74.791463 
C 253.775982 75.373133 254.565006 75.699958 255.387612 75.699958 
z
" clip-path="url(#pd00bc7a526)" style="fill: #57d3db; stroke: #57d3db; stroke-width: 0.886227"/>
    <path d="M 223.183386 102.897032 
C 224.005992 102.897032 224.795016 102.570208 225.376686 101.988538 
C 225.958356 101.406868 226.28518 100.617844 226.28518 99.795238 
C 226.28518 98.972633 225.958356 98.183608 225.376686 97.601939 
C 224.795016 97.020269 224.005992 96.693444 223.183386 96.693444 
C 222.360781 96.693444 221.571756 97.020269 220.990086 97.601939 
C 220.408416 98.183608 220.081592 98.972633 220.081592 99.795238 
C 220.081592 100.617844 220.408416 101.406868 220.990086 101.988538 
C 221.571756 102.570208 222.360781 102.897032 223.183386 102.897032 
z
" clip-path="url(#pd00bc7a526)" style="fill: #57d3db; stroke: #57d3db; stroke-width: 0.886227"/>
    <path d="M 221.833508 125.401476 
C 222.656114 125.401476 223.445138 125.074652 224.026808 124.492982 
C 224.608478 123.911312 224.935303 123.122288 224.935303 122.299682 
C 224.935303 121.477077 224.608478 120.688052 224.026808 120.106382 
C 223.445138 119.524713 222.656114 119.197888 221.833508 119.197888 
C 221.010903 119.197888 220.221878 119.524713 219.640209 120.106382 
C 219.058539 120.688052 218.731714 121.477077 218.731714 122.299682 
C 218.731714 123.122288 219.058539 123.911312 219.640209 124.492982 
C 220.221878 125.074652 221.010903 125.401476 221.833508 125.401476 
z
" clip-path="url(#pd00bc7a526)" style="fill: #57d3db; stroke: #57d3db; stroke-width: 0.886227"/>
    <path d="M 221.640669 107.085079 
C 222.463274 107.085079 223.252298 106.758255 223.833968 106.176585 
C 224.415638 105.594915 224.742463 104.80589 224.742463 103.983285 
C 224.742463 103.16068 224.415638 102.371655 223.833968 101.789985 
C 223.252298 101.208315 222.463274 100.881491 221.640669 100.881491 
C 220.818063 100.881491 220.029039 101.208315 219.447369 101.789985 
C 218.865699 102.371655 218.538874 103.16068 218.538874 103.983285 
C 218.538874 104.80589 218.865699 105.594915 219.447369 106.176585 
C 220.029039 106.758255 220.818063 107.085079 221.640669 107.085079 
z
" clip-path="url(#pd00bc7a526)" style="fill: #57db80; stroke: #57db80; stroke-width: 0.886227"/>
    <path d="M 187.893725 117.378592 
C 188.716331 117.378592 189.505355 117.051767 190.087025 116.470097 
C 190.668695 115.888427 190.99552 115.099403 190.99552 114.276797 
C 190.99552 113.454192 190.668695 112.665168 190.087025 112.083498 
C 189.505355 111.501828 188.716331 111.175003 187.893725 111.175003 
C 187.07112 111.175003 186.282096 111.501828 185.700426 112.083498 
C 185.118756 112.665168 184.791931 113.454192 184.791931 114.276797 
C 184.791931 115.099403 185.118756 115.888427 185.700426 116.470097 
C 186.282096 117.051767 187.07112 117.378592 187.893725 117.378592 
z
" clip-path="url(#pd00bc7a526)" style="fill: #57db80; stroke: #57db80; stroke-width: 0.886227"/>
    <path d="M 186.736687 105.16766 
C 187.559293 105.16766 188.348317 104.840836 188.929987 104.259166 
C 189.511657 103.677496 189.838482 102.888471 189.838482 102.065866 
C 189.838482 101.243261 189.511657 100.454236 188.929987 99.872566 
C 188.348317 99.290896 187.559293 98.964072 186.736687 98.964072 
C 185.914082 98.964072 185.125057 99.290896 184.543388 99.872566 
C 183.961718 100.454236 183.634893 101.243261 183.634893 102.065866 
C 183.634893 102.888471 183.961718 103.677496 184.543388 104.259166 
C 185.125057 104.840836 185.914082 105.16766 186.736687 105.16766 
z
" clip-path="url(#pd00bc7a526)" style="fill: #57db80; stroke: #57db80; stroke-width: 0.886227"/>
    <path d="M 185.38681 124.695059 
C 186.209415 124.695059 186.998439 124.368234 187.580109 123.786564 
C 188.161779 123.204895 188.488604 122.41587 188.488604 121.593265 
C 188.488604 120.770659 188.161779 119.981635 187.580109 119.399965 
C 186.998439 118.818295 186.209415 118.49147 185.38681 118.49147 
C 184.564204 118.49147 183.77518 118.818295 183.19351 119.399965 
C 182.61184 119.981635 182.285015 120.770659 182.285015 121.593265 
C 182.285015 122.41587 182.61184 123.204895 183.19351 123.786564 
C 183.77518 124.368234 184.564204 124.695059 185.38681 124.695059 
z
" clip-path="url(#pd00bc7a526)" style="fill: #57db80; stroke: #57db80; stroke-width: 0.886227"/>
    <path d="M 185.19397 105.218119 
C 186.016575 105.218119 186.8056 104.891294 187.38727 104.309624 
C 187.96894 103.727954 188.295764 102.93893 188.295764 102.116324 
C 188.295764 101.293719 187.96894 100.504695 187.38727 99.923025 
C 186.8056 99.341355 186.016575 99.01453 185.19397 99.01453 
C 184.371364 99.01453 183.58234 99.341355 183.00067 99.923025 
C 182.419 100.504695 182.092176 101.293719 182.092176 102.116324 
C 182.092176 102.93893 182.419 103.727954 183.00067 104.309624 
C 183.58234 104.891294 184.371364 105.218119 185.19397 105.218119 
z
" clip-path="url(#pd00bc7a526)" style="fill: #91db57; stroke: #91db57; stroke-width: 0.886227"/>
    <path d="M 151.639866 138.520659 
C 152.462472 138.520659 153.251496 138.193834 153.833166 137.612164 
C 154.414836 137.030495 154.741661 136.24147 154.741661 135.418865 
C 154.741661 134.596259 154.414836 133.807235 153.833166 133.225565 
C 153.251496 132.643895 152.462472 132.31707 151.639866 132.31707 
C 150.817261 132.31707 150.028236 132.643895 149.446567 133.225565 
C 148.864897 133.807235 148.538072 134.596259 148.538072 135.418865 
C 148.538072 136.24147 148.864897 137.030495 149.446567 137.612164 
C 150.028236 138.193834 150.817261 138.520659 151.639866 138.520659 
z
" clip-path="url(#pd00bc7a526)" style="fill: #91db57; stroke: #91db57; stroke-width: 0.886227"/>
    <path d="M 150.289989 159.713185 
C 151.112594 159.713185 151.901618 159.38636 152.483288 158.80469 
C 153.064958 158.22302 153.391783 157.433996 153.391783 156.61139 
C 153.391783 155.788785 153.064958 154.999761 152.483288 154.418091 
C 151.901618 153.836421 151.112594 153.509596 150.289989 153.509596 
C 149.467383 153.509596 148.678359 153.836421 148.096689 154.418091 
C 147.515019 154.999761 147.188194 155.788785 147.188194 156.61139 
C 147.188194 157.433996 147.515019 158.22302 148.096689 158.80469 
C 148.678359 159.38636 149.467383 159.713185 150.289989 159.713185 
z
" clip-path="url(#pd00bc7a526)" style="fill: #91db57; stroke: #91db57; stroke-width: 0.886227"/>
    <path d="M 150.097149 139.529827 
C 150.919754 139.529827 151.708779 139.203002 152.290449 138.621332 
C 152.872119 138.039662 153.198943 137.250638 153.198943 136.428033 
C 153.198943 135.605427 152.872119 134.816403 152.290449 134.234733 
C 151.708779 133.653063 150.919754 133.326238 150.097149 133.326238 
C 149.274543 133.326238 148.485519 133.653063 147.903849 134.234733 
C 147.322179 134.816403 146.995355 135.605427 146.995355 136.428033 
C 146.995355 137.250638 147.322179 138.039662 147.903849 138.621332 
C 148.485519 139.203002 149.274543 139.529827 150.097149 139.529827 
z
" clip-path="url(#pd00bc7a526)" style="fill: #dbc257; stroke: #dbc257; stroke-width: 0.886227"/>
    <path d="M 120.785518 181.914878 
C 121.608124 181.914878 122.397148 181.588054 122.978818 181.006384 
C 123.560488 180.424714 123.887312 179.635689 123.887312 178.813084 
C 123.887312 177.990479 123.560488 177.201454 122.978818 176.619784 
C 122.397148 176.038114 121.608124 175.71129 120.785518 175.71129 
C 119.962913 175.71129 119.173888 176.038114 118.592218 176.619784 
C 118.010549 177.201454 117.683724 177.990479 117.683724 178.813084 
C 117.683724 179.635689 118.010549 180.424714 118.592218 181.006384 
C 119.173888 181.588054 119.962913 181.914878 120.785518 181.914878 
z
" clip-path="url(#pd00bc7a526)" style="fill: #dbc257; stroke: #dbc257; stroke-width: 0.886227"/>
    <path d="M 119.43564 182.570837 
C 120.258246 182.570837 121.04727 182.244013 121.62894 181.662343 
C 122.21061 181.080673 122.537435 180.291649 122.537435 179.469043 
C 122.537435 178.646438 122.21061 177.857413 121.62894 177.275743 
C 121.04727 176.694073 120.258246 176.367249 119.43564 176.367249 
C 118.613035 176.367249 117.824011 176.694073 117.242341 177.275743 
C 116.660671 177.857413 116.333846 178.646438 116.333846 179.469043 
C 116.333846 180.291649 116.660671 181.080673 117.242341 181.662343 
C 117.824011 182.244013 118.613035 182.570837 119.43564 182.570837 
z
" clip-path="url(#pd00bc7a526)" style="fill: #dbc257; stroke: #dbc257; stroke-width: 0.886227"/>
    <path d="M 119.242801 177.726831 
C 120.065406 177.726831 120.854431 177.400007 121.436101 176.818337 
C 122.01777 176.236667 122.344595 175.447643 122.344595 174.625037 
C 122.344595 173.802432 122.01777 173.013407 121.436101 172.431737 
C 120.854431 171.850068 120.065406 171.523243 119.242801 171.523243 
C 118.420195 171.523243 117.631171 171.850068 117.049501 172.431737 
C 116.467831 173.013407 116.141007 173.802432 116.141007 174.625037 
C 116.141007 175.447643 116.467831 176.236667 117.049501 176.818337 
C 117.631171 177.400007 118.420195 177.726831 119.242801 177.726831 
z
" clip-path="url(#pd00bc7a526)" style="fill: #db5f57; stroke: #db5f57; stroke-width: 0.886227"/>
    <path d="M 81.446224 235.198943 
C 82.26883 235.198943 83.057854 234.872118 83.639524 234.290448 
C 84.221194 233.708778 84.548019 232.919754 84.548019 232.097149 
C 84.548019 231.274543 84.221194 230.485519 83.639524 229.903849 
C 83.057854 229.322179 82.26883 228.995354 81.446224 228.995354 
C 80.623619 228.995354 79.834594 229.322179 79.252925 229.903849 
C 78.671255 230.485519 78.34443 231.274543 78.34443 232.097149 
C 78.34443 232.919754 78.671255 233.708778 79.252925 234.290448 
C 79.834594 234.872118 80.623619 235.198943 81.446224 235.198943 
z
" clip-path="url(#pd00bc7a526)" style="fill: #db5f57; stroke: #db5f57; stroke-width: 0.886227"/>
    <path d="M 80.096347 257.198803 
C 80.918952 257.198803 81.707976 256.871978 82.289646 256.290308 
C 82.871316 255.708638 83.198141 254.919614 83.198141 254.097009 
C 83.198141 253.274403 82.871316 252.485379 82.289646 251.903709 
C 81.707976 251.322039 80.918952 250.995214 80.096347 250.995214 
C 79.273741 250.995214 78.484717 251.322039 77.903047 251.903709 
C 77.321377 252.485379 76.994552 253.274403 76.994552 254.097009 
C 76.994552 254.919614 77.321377 255.708638 77.903047 256.290308 
C 78.484717 256.871978 79.273741 257.198803 80.096347 257.198803 
z
" clip-path="url(#pd00bc7a526)" style="fill: #db5f57; stroke: #db5f57; stroke-width: 0.886227"/>
   </g>
  </g>
  <g id="patch_3">
   <path d="M 67.658188 265.977437 
L 341.297688 265.977437 
L 341.297688 4.608 
L 67.658188 4.608 
L 67.658188 265.977437 
z
" style="fill: none; stroke: #7f7f7f; stroke-linejoin: miter"/>
  </g>
  <g id="text_14">
   <!-- Date -->
   <g transform="translate(186.551766 337.872469) scale(0.15 -0.15)">
    <defs>
     <path id="DejaVuSans-44" d="M 1259 4147 
L 1259 519 
L 2022 519 
Q 2988 519 3436 956 
Q 3884 1394 3884 2338 
Q 3884 3275 3436 3711 
Q 2988 4147 2022 4147 
L 1259 4147 
z
M 628 4666 
L 1925 4666 
Q 3281 4666 3915 4102 
Q 4550 3538 4550 2338 
Q 4550 1131 3912 565 
Q 3275 0 1925 0 
L 628 0 
L 628 4666 
z
" transform="scale(0.015625)"/>
     <path id="DejaVuSans-61" d="M 2194 1759 
Q 1497 1759 1228 1600 
Q 959 1441 959 1056 
Q 959 750 1161 570 
Q 1363 391 1709 391 
Q 2188 391 2477 730 
Q 2766 1069 2766 1631 
L 2766 1759 
L 2194 1759 
z
M 3341 1997 
L 3341 0 
L 2766 0 
L 2766 531 
Q 2569 213 2275 61 
Q 1981 -91 1556 -91 
Q 1019 -91 701 211 
Q 384 513 384 1019 
Q 384 1609 779 1909 
Q 1175 2209 1959 2209 
L 2766 2209 
L 2766 2266 
Q 2766 2663 2505 2880 
Q 2244 3097 1772 3097 
Q 1472 3097 1187 3025 
Q 903 2953 641 2809 
L 641 3341 
Q 956 3463 1253 3523 
Q 1550 3584 1831 3584 
Q 2591 3584 2966 3190 
Q 3341 2797 3341 1997 
z
" transform="scale(0.015625)"/>
     <path id="DejaVuSans-74" d="M 1172 4494 
L 1172 3500 
L 2356 3500 
L 2356 3053 
L 1172 3053 
L 1172 1153 
Q 1172 725 1289 603 
Q 1406 481 1766 481 
L 2356 481 
L 2356 0 
L 1766 0 
Q 1100 0 847 248 
Q 594 497 594 1153 
L 594 3053 
L 172 3053 
L 172 3500 
L 594 3500 
L 594 4494 
L 1172 4494 
z
" transform="scale(0.015625)"/>
     <path id="DejaVuSans-65" d="M 3597 1894 
L 3597 1613 
L 953 1613 
Q 991 1019 1311 708 
Q 1631 397 2203 397 
Q 2534 397 2845 478 
Q 3156 559 3463 722 
L 3463 178 
Q 3153 47 2828 -22 
Q 2503 -91 2169 -91 
Q 1331 -91 842 396 
Q 353 884 353 1716 
Q 353 2575 817 3079 
Q 1281 3584 2069 3584 
Q 2775 3584 3186 3129 
Q 3597 2675 3597 1894 
z
M 3022 2063 
Q 3016 2534 2758 2815 
Q 2500 3097 2075 3097 
Q 1594 3097 1305 2825 
Q 1016 2553 972 2059 
L 3022 2063 
z
" transform="scale(0.015625)"/>
    </defs>
    <use xlink:href="#DejaVuSans-44"/>
    <use xlink:href="#DejaVuSans-61" x="77.001953"/>
    <use xlink:href="#DejaVuSans-74" x="138.28125"/>
    <use xlink:href="#DejaVuSans-65" x="177.490234"/>
   </g>
  </g>
  <g id="text_15">
   <!-- no. of packages -->
   <g transform="translate(16.005656 194.456) rotate(-90) scale(0.15 -0.15)">
    <defs>
     <path id="DejaVuSans-6e" d="M 3513 2113 
L 3513 0 
L 2938 0 
L 2938 2094 
Q 2938 2591 2744 2837 
Q 2550 3084 2163 3084 
Q 1697 3084 1428 2787 
Q 1159 2491 1159 1978 
L 1159 0 
L 581 0 
L 581 3500 
L 1159 3500 
L 1159 2956 
Q 1366 3272 1645 3428 
Q 1925 3584 2291 3584 
Q 2894 3584 3203 3211 
Q 3513 2838 3513 2113 
z
" transform="scale(0.015625)"/>
     <path id="DejaVuSans-6f" d="M 1959 3097 
Q 1497 3097 1228 2736 
Q 959 2375 959 1747 
Q 959 1119 1226 758 
Q 1494 397 1959 397 
Q 2419 397 2687 759 
Q 2956 1122 2956 1747 
Q 2956 2369 2687 2733 
Q 2419 3097 1959 3097 
z
M 1959 3584 
Q 2709 3584 3137 3096 
Q 3566 2609 3566 1747 
Q 3566 888 3137 398 
Q 2709 -91 1959 -91 
Q 1206 -91 779 398 
Q 353 888 353 1747 
Q 353 2609 779 3096 
Q 1206 3584 1959 3584 
z
" transform="scale(0.015625)"/>
     <path id="DejaVuSans-2e" d="M 684 794 
L 1344 794 
L 1344 0 
L 684 0 
L 684 794 
z
" transform="scale(0.015625)"/>
     <path id="DejaVuSans-20" transform="scale(0.015625)"/>
     <path id="DejaVuSans-66" d="M 2375 4863 
L 2375 4384 
L 1825 4384 
Q 1516 4384 1395 4259 
Q 1275 4134 1275 3809 
L 1275 3500 
L 2222 3500 
L 2222 3053 
L 1275 3053 
L 1275 0 
L 697 0 
L 697 3053 
L 147 3053 
L 147 3500 
L 697 3500 
L 697 3744 
Q 697 4328 969 4595 
Q 1241 4863 1831 4863 
L 2375 4863 
z
" transform="scale(0.015625)"/>
     <path id="DejaVuSans-70" d="M 1159 525 
L 1159 -1331 
L 581 -1331 
L 581 3500 
L 1159 3500 
L 1159 2969 
Q 1341 3281 1617 3432 
Q 1894 3584 2278 3584 
Q 2916 3584 3314 3078 
Q 3713 2572 3713 1747 
Q 3713 922 3314 415 
Q 2916 -91 2278 -91 
Q 1894 -91 1617 61 
Q 1341 213 1159 525 
z
M 3116 1747 
Q 3116 2381 2855 2742 
Q 2594 3103 2138 3103 
Q 1681 3103 1420 2742 
Q 1159 2381 1159 1747 
Q 1159 1113 1420 752 
Q 1681 391 2138 391 
Q 2594 391 2855 752 
Q 3116 1113 3116 1747 
z
" transform="scale(0.015625)"/>
     <path id="DejaVuSans-63" d="M 3122 3366 
L 3122 2828 
Q 2878 2963 2633 3030 
Q 2388 3097 2138 3097 
Q 1578 3097 1268 2742 
Q 959 2388 959 1747 
Q 959 1106 1268 751 
Q 1578 397 2138 397 
Q 2388 397 2633 464 
Q 2878 531 3122 666 
L 3122 134 
Q 2881 22 2623 -34 
Q 2366 -91 2075 -91 
Q 1284 -91 818 406 
Q 353 903 353 1747 
Q 353 2603 823 3093 
Q 1294 3584 2113 3584 
Q 2378 3584 2631 3529 
Q 2884 3475 3122 3366 
z
" transform="scale(0.015625)"/>
     <path id="DejaVuSans-6b" d="M 581 4863 
L 1159 4863 
L 1159 1991 
L 2875 3500 
L 3609 3500 
L 1753 1863 
L 3688 0 
L 2938 0 
L 1159 1709 
L 1159 0 
L 581 0 
L 581 4863 
z
" transform="scale(0.015625)"/>
     <path id="DejaVuSans-67" d="M 2906 1791 
Q 2906 2416 2648 2759 
Q 2391 3103 1925 3103 
Q 1463 3103 1205 2759 
Q 947 2416 947 1791 
Q 947 1169 1205 825 
Q 1463 481 1925 481 
Q 2391 481 2648 825 
Q 2906 1169 2906 1791 
z
M 3481 434 
Q 3481 -459 3084 -895 
Q 2688 -1331 1869 -1331 
Q 1566 -1331 1297 -1286 
Q 1028 -1241 775 -1147 
L 775 -588 
Q 1028 -725 1275 -790 
Q 1522 -856 1778 -856 
Q 2344 -856 2625 -561 
Q 2906 -266 2906 331 
L 2906 616 
Q 2728 306 2450 153 
Q 2172 0 1784 0 
Q 1141 0 747 490 
Q 353 981 353 1791 
Q 353 2603 747 3093 
Q 1141 3584 1784 3584 
Q 2172 3584 2450 3431 
Q 2728 3278 2906 2969 
L 2906 3500 
L 3481 3500 
L 3481 434 
z
" transform="scale(0.015625)"/>
     <path id="DejaVuSans-73" d="M 2834 3397 
L 2834 2853 
Q 2591 2978 2328 3040 
Q 2066 3103 1784 3103 
Q 1356 3103 1142 2972 
Q 928 2841 928 2578 
Q 928 2378 1081 2264 
Q 1234 2150 1697 2047 
L 1894 2003 
Q 2506 1872 2764 1633 
Q 3022 1394 3022 966 
Q 3022 478 2636 193 
Q 2250 -91 1575 -91 
Q 1294 -91 989 -36 
Q 684 19 347 128 
L 347 722 
Q 666 556 975 473 
Q 1284 391 1588 391 
Q 1994 391 2212 530 
Q 2431 669 2431 922 
Q 2431 1156 2273 1281 
Q 2116 1406 1581 1522 
L 1381 1569 
Q 847 1681 609 1914 
Q 372 2147 372 2553 
Q 372 3047 722 3315 
Q 1072 3584 1716 3584 
Q 2034 3584 2315 3537 
Q 2597 3491 2834 3397 
z
" transform="scale(0.015625)"/>
    </defs>
    <use xlink:href="#DejaVuSans-6e"/>
    <use xlink:href="#DejaVuSans-6f" x="63.378906"/>
    <use xlink:href="#DejaVuSans-2e" x="122.810547"/>
    <use xlink:href="#DejaVuSans-20" x="154.597656"/>
    <use xlink:href="#DejaVuSans-6f" x="186.384766"/>
    <use xlink:href="#DejaVuSans-66" x="247.566406"/>
    <use xlink:href="#DejaVuSans-20" x="282.771484"/>
    <use xlink:href="#DejaVuSans-70" x="314.558594"/>
    <use xlink:href="#DejaVuSans-61" x="378.035156"/>
    <use xlink:href="#DejaVuSans-63" x="439.314453"/>
    <use xlink:href="#DejaVuSans-6b" x="494.294922"/>
    <use xlink:href="#DejaVuSans-61" x="550.455078"/>
    <use xlink:href="#DejaVuSans-67" x="611.734375"/>
    <use xlink:href="#DejaVuSans-65" x="675.210938"/>
    <use xlink:href="#DejaVuSans-73" x="736.734375"/>
   </g>
  </g>
  <g id="patch_4">
   <path d="M 355.121688 238.103312 
L 456.192 238.103312 
L 456.192 32.482125 
L 355.121688 32.482125 
z
" style="fill: #ffffff"/>
  </g>
  <g id="text_16">
   <!-- Bioconductor -->
   <g transform="translate(356.121688 44.879781) scale(0.15 -0.15)">
    <defs>
     <path id="DejaVuSans-42" d="M 1259 2228 
L 1259 519 
L 2272 519 
Q 2781 519 3026 730 
Q 3272 941 3272 1375 
Q 3272 1813 3026 2020 
Q 2781 2228 2272 2228 
L 1259 2228 
z
M 1259 4147 
L 1259 2741 
L 2194 2741 
Q 2656 2741 2882 2914 
Q 3109 3088 3109 3444 
Q 3109 3797 2882 3972 
Q 2656 4147 2194 4147 
L 1259 4147 
z
M 628 4666 
L 2241 4666 
Q 2963 4666 3353 4366 
Q 3744 4066 3744 3513 
Q 3744 3084 3544 2831 
Q 3344 2578 2956 2516 
Q 3422 2416 3680 2098 
Q 3938 1781 3938 1306 
Q 3938 681 3513 340 
Q 3088 0 2303 0 
L 628 0 
L 628 4666 
z
" transform="scale(0.015625)"/>
     <path id="DejaVuSans-69" d="M 603 3500 
L 1178 3500 
L 1178 0 
L 603 0 
L 603 3500 
z
M 603 4863 
L 1178 4863 
L 1178 4134 
L 603 4134 
L 603 4863 
z
" transform="scale(0.015625)"/>
     <path id="DejaVuSans-64" d="M 2906 2969 
L 2906 4863 
L 3481 4863 
L 3481 0 
L 2906 0 
L 2906 525 
Q 2725 213 2448 61 
Q 2172 -91 1784 -91 
Q 1150 -91 751 415 
Q 353 922 353 1747 
Q 353 2572 751 3078 
Q 1150 3584 1784 3584 
Q 2172 3584 2448 3432 
Q 2725 3281 2906 2969 
z
M 947 1747 
Q 947 1113 1208 752 
Q 1469 391 1925 391 
Q 2381 391 2643 752 
Q 2906 1113 2906 1747 
Q 2906 2381 2643 2742 
Q 2381 3103 1925 3103 
Q 1469 3103 1208 2742 
Q 947 2381 947 1747 
z
" transform="scale(0.015625)"/>
     <path id="DejaVuSans-75" d="M 544 1381 
L 544 3500 
L 1119 3500 
L 1119 1403 
Q 1119 906 1312 657 
Q 1506 409 1894 409 
Q 2359 409 2629 706 
Q 2900 1003 2900 1516 
L 2900 3500 
L 3475 3500 
L 3475 0 
L 2900 0 
L 2900 538 
Q 2691 219 2414 64 
Q 2138 -91 1772 -91 
Q 1169 -91 856 284 
Q 544 659 544 1381 
z
M 1991 3584 
L 1991 3584 
z
" transform="scale(0.015625)"/>
     <path id="DejaVuSans-72" d="M 2631 2963 
Q 2534 3019 2420 3045 
Q 2306 3072 2169 3072 
Q 1681 3072 1420 2755 
Q 1159 2438 1159 1844 
L 1159 0 
L 581 0 
L 581 3500 
L 1159 3500 
L 1159 2956 
Q 1341 3275 1631 3429 
Q 1922 3584 2338 3584 
Q 2397 3584 2469 3576 
Q 2541 3569 2628 3553 
L 2631 2963 
z
" transform="scale(0.015625)"/>
    </defs>
    <use xlink:href="#DejaVuSans-42"/>
    <use xlink:href="#DejaVuSans-69" x="68.603516"/>
    <use xlink:href="#DejaVuSans-6f" x="96.386719"/>
    <use xlink:href="#DejaVuSans-63" x="157.568359"/>
    <use xlink:href="#DejaVuSans-6f" x="212.548828"/>
    <use xlink:href="#DejaVuSans-6e" x="273.730469"/>
    <use xlink:href="#DejaVuSans-64" x="337.109375"/>
    <use xlink:href="#DejaVuSans-75" x="400.585938"/>
    <use xlink:href="#DejaVuSans-63" x="463.964844"/>
    <use xlink:href="#DejaVuSans-74" x="518.945312"/>
    <use xlink:href="#DejaVuSans-6f" x="558.154297"/>
    <use xlink:href="#DejaVuSans-72" x="619.335938"/>
   </g>
  </g>
  <g id="patch_5">
   <path d="M 357.121688 70.903313 
L 376.721688 70.903313 
L 376.721688 51.303313 
L 357.121688 51.303313 
L 357.121688 70.903313 
z
" clip-path="url(#p5311c6a94d)" style="fill: none; stroke: #cccccc; stroke-linejoin: miter"/>
  </g>
  <g id="line2d_52">
   <path d="M 366.921688 61.103313 
" clip-path="url(#p5311c6a94d)" style="fill: none; stroke: #1f77b4; stroke-width: 1.5; stroke-linecap: square"/>
   <defs>
    <path id="m0df3b6b496" d="M 0 3.101794 
C 0.822605 3.101794 1.61163 2.77497 2.1933 2.1933 
C 2.77497 1.61163 3.101794 0.822605 3.101794 0 
C 3.101794 -0.822605 2.77497 -1.61163 2.1933 -2.1933 
C 1.61163 -2.77497 0.822605 -3.101794 0 -3.101794 
C -0.822605 -3.101794 -1.61163 -2.77497 -2.1933 -2.1933 
C -2.77497 -1.61163 -3.101794 -0.822605 -3.101794 0 
C -3.101794 0.822605 -2.77497 1.61163 -2.1933 2.1933 
C -1.61163 2.77497 -0.822605 3.101794 0 3.101794 
z
" style="stroke: #db5f57; stroke-width: 0.886227"/>
   </defs>
   <g clip-path="url(#p5311c6a94d)">
    <use xlink:href="#m0df3b6b496" x="366.921688" y="61.103313" style="fill: #db5f57; stroke: #db5f57; stroke-width: 0.886227"/>
   </g>
  </g>
  <g id="text_17">
   <!-- 3.12 -->
   <g transform="translate(380.025688 64.414563) scale(0.12 -0.12)">
    <use xlink:href="#DejaVuSans-33"/>
    <use xlink:href="#DejaVuSans-2e" x="63.623047"/>
    <use xlink:href="#DejaVuSans-31" x="95.410156"/>
    <use xlink:href="#DejaVuSans-32" x="159.033203"/>
   </g>
  </g>
  <g id="patch_6">
   <path d="M 357.121688 94.503313 
L 376.721688 94.503313 
L 376.721688 74.903313 
L 357.121688 74.903313 
L 357.121688 94.503313 
z
" clip-path="url(#p0f7ae4b72a)" style="fill: none; stroke: #cccccc; stroke-linejoin: miter"/>
  </g>
  <g id="line2d_53">
   <path d="M 366.921688 84.703313 
" clip-path="url(#p0f7ae4b72a)" style="fill: none; stroke: #1f77b4; stroke-width: 1.5; stroke-linecap: square"/>
   <defs>
    <path id="m4ccb91407b" d="M 0 3.101794 
C 0.822605 3.101794 1.61163 2.77497 2.1933 2.1933 
C 2.77497 1.61163 3.101794 0.822605 3.101794 0 
C 3.101794 -0.822605 2.77497 -1.61163 2.1933 -2.1933 
C 1.61163 -2.77497 0.822605 -3.101794 0 -3.101794 
C -0.822605 -3.101794 -1.61163 -2.77497 -2.1933 -2.1933 
C -2.77497 -1.61163 -3.101794 -0.822605 -3.101794 0 
C -3.101794 0.822605 -2.77497 1.61163 -2.1933 2.1933 
C -1.61163 2.77497 -0.822605 3.101794 0 3.101794 
z
" style="stroke: #dbc257; stroke-width: 0.886227"/>
   </defs>
   <g clip-path="url(#p0f7ae4b72a)">
    <use xlink:href="#m4ccb91407b" x="366.921688" y="84.703313" style="fill: #dbc257; stroke: #dbc257; stroke-width: 0.886227"/>
   </g>
  </g>
  <g id="text_18">
   <!-- 3.13 -->
   <g transform="translate(380.025688 88.014563) scale(0.12 -0.12)">
    <use xlink:href="#DejaVuSans-33"/>
    <use xlink:href="#DejaVuSans-2e" x="63.623047"/>
    <use xlink:href="#DejaVuSans-31" x="95.410156"/>
    <use xlink:href="#DejaVuSans-33" x="159.033203"/>
   </g>
  </g>
  <g id="patch_7">
   <path d="M 357.121688 118.103313 
L 376.721688 118.103313 
L 376.721688 98.503313 
L 357.121688 98.503313 
L 357.121688 118.103313 
z
" clip-path="url(#p7e5602067f)" style="fill: none; stroke: #cccccc; stroke-linejoin: miter"/>
  </g>
  <g id="line2d_54">
   <path d="M 366.921688 108.303313 
" clip-path="url(#p7e5602067f)" style="fill: none; stroke: #1f77b4; stroke-width: 1.5; stroke-linecap: square"/>
   <defs>
    <path id="m4d4a6c3cf9" d="M 0 3.101794 
C 0.822605 3.101794 1.61163 2.77497 2.1933 2.1933 
C 2.77497 1.61163 3.101794 0.822605 3.101794 0 
C 3.101794 -0.822605 2.77497 -1.61163 2.1933 -2.1933 
C 1.61163 -2.77497 0.822605 -3.101794 0 -3.101794 
C -0.822605 -3.101794 -1.61163 -2.77497 -2.1933 -2.1933 
C -2.77497 -1.61163 -3.101794 -0.822605 -3.101794 0 
C -3.101794 0.822605 -2.77497 1.61163 -2.1933 2.1933 
C -1.61163 2.77497 -0.822605 3.101794 0 3.101794 
z
" style="stroke: #91db57; stroke-width: 0.886227"/>
   </defs>
   <g clip-path="url(#p7e5602067f)">
    <use xlink:href="#m4d4a6c3cf9" x="366.921688" y="108.303313" style="fill: #91db57; stroke: #91db57; stroke-width: 0.886227"/>
   </g>
  </g>
  <g id="text_19">
   <!-- 3.14 -->
   <g transform="translate(380.025688 111.614563) scale(0.12 -0.12)">
    <use xlink:href="#DejaVuSans-33"/>
    <use xlink:href="#DejaVuSans-2e" x="63.623047"/>
    <use xlink:href="#DejaVuSans-31" x="95.410156"/>
    <use xlink:href="#DejaVuSans-34" x="159.033203"/>
   </g>
  </g>
  <g id="patch_8">
   <path d="M 357.121688 141.703313 
L 376.721688 141.703313 
L 376.721688 122.103313 
L 357.121688 122.103313 
L 357.121688 141.703313 
z
" clip-path="url(#p7e184ec6ba)" style="fill: none; stroke: #cccccc; stroke-linejoin: miter"/>
  </g>
  <g id="line2d_55">
   <path d="M 366.921688 131.903313 
" clip-path="url(#p7e184ec6ba)" style="fill: none; stroke: #1f77b4; stroke-width: 1.5; stroke-linecap: square"/>
   <defs>
    <path id="mbb3010edf0" d="M 0 3.101794 
C 0.822605 3.101794 1.61163 2.77497 2.1933 2.1933 
C 2.77497 1.61163 3.101794 0.822605 3.101794 0 
C 3.101794 -0.822605 2.77497 -1.61163 2.1933 -2.1933 
C 1.61163 -2.77497 0.822605 -3.101794 0 -3.101794 
C -0.822605 -3.101794 -1.61163 -2.77497 -2.1933 -2.1933 
C -2.77497 -1.61163 -3.101794 -0.822605 -3.101794 0 
C -3.101794 0.822605 -2.77497 1.61163 -2.1933 2.1933 
C -1.61163 2.77497 -0.822605 3.101794 0 3.101794 
z
" style="stroke: #57db80; stroke-width: 0.886227"/>
   </defs>
   <g clip-path="url(#p7e184ec6ba)">
    <use xlink:href="#mbb3010edf0" x="366.921688" y="131.903313" style="fill: #57db80; stroke: #57db80; stroke-width: 0.886227"/>
   </g>
  </g>
  <g id="text_20">
   <!-- 3.15 -->
   <g transform="translate(380.025688 135.214563) scale(0.12 -0.12)">
    <defs>
     <path id="DejaVuSans-35" d="M 691 4666 
L 3169 4666 
L 3169 4134 
L 1269 4134 
L 1269 2991 
Q 1406 3038 1543 3061 
Q 1681 3084 1819 3084 
Q 2600 3084 3056 2656 
Q 3513 2228 3513 1497 
Q 3513 744 3044 326 
Q 2575 -91 1722 -91 
Q 1428 -91 1123 -41 
Q 819 9 494 109 
L 494 744 
Q 775 591 1075 516 
Q 1375 441 1709 441 
Q 2250 441 2565 725 
Q 2881 1009 2881 1497 
Q 2881 1984 2565 2268 
Q 2250 2553 1709 2553 
Q 1456 2553 1204 2497 
Q 953 2441 691 2322 
L 691 4666 
z
" transform="scale(0.015625)"/>
    </defs>
    <use xlink:href="#DejaVuSans-33"/>
    <use xlink:href="#DejaVuSans-2e" x="63.623047"/>
    <use xlink:href="#DejaVuSans-31" x="95.410156"/>
    <use xlink:href="#DejaVuSans-35" x="159.033203"/>
   </g>
  </g>
  <g id="patch_9">
   <path d="M 357.121688 165.303313 
L 376.721688 165.303313 
L 376.721688 145.703313 
L 357.121688 145.703313 
L 357.121688 165.303313 
z
" clip-path="url(#p9fa463083d)" style="fill: none; stroke: #cccccc; stroke-linejoin: miter"/>
  </g>
  <g id="line2d_56">
   <path d="M 366.921688 155.503313 
" clip-path="url(#p9fa463083d)" style="fill: none; stroke: #1f77b4; stroke-width: 1.5; stroke-linecap: square"/>
   <defs>
    <path id="mf8d37078d4" d="M 0 3.101794 
C 0.822605 3.101794 1.61163 2.77497 2.1933 2.1933 
C 2.77497 1.61163 3.101794 0.822605 3.101794 0 
C 3.101794 -0.822605 2.77497 -1.61163 2.1933 -2.1933 
C 1.61163 -2.77497 0.822605 -3.101794 0 -3.101794 
C -0.822605 -3.101794 -1.61163 -2.77497 -2.1933 -2.1933 
C -2.77497 -1.61163 -3.101794 -0.822605 -3.101794 0 
C -3.101794 0.822605 -2.77497 1.61163 -2.1933 2.1933 
C -1.61163 2.77497 -0.822605 3.101794 0 3.101794 
z
" style="stroke: #57d3db; stroke-width: 0.886227"/>
   </defs>
   <g clip-path="url(#p9fa463083d)">
    <use xlink:href="#mf8d37078d4" x="366.921688" y="155.503313" style="fill: #57d3db; stroke: #57d3db; stroke-width: 0.886227"/>
   </g>
  </g>
  <g id="text_21">
   <!-- 3.16 -->
   <g transform="translate(380.025688 158.814563) scale(0.12 -0.12)">
    <defs>
     <path id="DejaVuSans-36" d="M 2113 2584 
Q 1688 2584 1439 2293 
Q 1191 2003 1191 1497 
Q 1191 994 1439 701 
Q 1688 409 2113 409 
Q 2538 409 2786 701 
Q 3034 994 3034 1497 
Q 3034 2003 2786 2293 
Q 2538 2584 2113 2584 
z
M 3366 4563 
L 3366 3988 
Q 3128 4100 2886 4159 
Q 2644 4219 2406 4219 
Q 1781 4219 1451 3797 
Q 1122 3375 1075 2522 
Q 1259 2794 1537 2939 
Q 1816 3084 2150 3084 
Q 2853 3084 3261 2657 
Q 3669 2231 3669 1497 
Q 3669 778 3244 343 
Q 2819 -91 2113 -91 
Q 1303 -91 875 529 
Q 447 1150 447 2328 
Q 447 3434 972 4092 
Q 1497 4750 2381 4750 
Q 2619 4750 2861 4703 
Q 3103 4656 3366 4563 
z
" transform="scale(0.015625)"/>
    </defs>
    <use xlink:href="#DejaVuSans-33"/>
    <use xlink:href="#DejaVuSans-2e" x="63.623047"/>
    <use xlink:href="#DejaVuSans-31" x="95.410156"/>
    <use xlink:href="#DejaVuSans-36" x="159.033203"/>
   </g>
  </g>
  <g id="patch_10">
   <path d="M 357.121688 188.903313 
L 376.721688 188.903313 
L 376.721688 169.303313 
L 357.121688 169.303313 
L 357.121688 188.903313 
z
" clip-path="url(#p4b4747c790)" style="fill: none; stroke: #cccccc; stroke-linejoin: miter"/>
  </g>
  <g id="line2d_57">
   <path d="M 366.921688 179.103313 
" clip-path="url(#p4b4747c790)" style="fill: none; stroke: #1f77b4; stroke-width: 1.5; stroke-linecap: square"/>
   <defs>
    <path id="mdfb2f7664d" d="M 0 3.101794 
C 0.822605 3.101794 1.61163 2.77497 2.1933 2.1933 
C 2.77497 1.61163 3.101794 0.822605 3.101794 0 
C 3.101794 -0.822605 2.77497 -1.61163 2.1933 -2.1933 
C 1.61163 -2.77497 0.822605 -3.101794 0 -3.101794 
C -0.822605 -3.101794 -1.61163 -2.77497 -2.1933 -2.1933 
C -2.77497 -1.61163 -3.101794 -0.822605 -3.101794 0 
C -3.101794 0.822605 -2.77497 1.61163 -2.1933 2.1933 
C -1.61163 2.77497 -0.822605 3.101794 0 3.101794 
z
" style="stroke: #5770db; stroke-width: 0.886227"/>
   </defs>
   <g clip-path="url(#p4b4747c790)">
    <use xlink:href="#mdfb2f7664d" x="366.921688" y="179.103313" style="fill: #5770db; stroke: #5770db; stroke-width: 0.886227"/>
   </g>
  </g>
  <g id="text_22">
   <!-- 3.17 -->
   <g transform="translate(380.025688 182.414563) scale(0.12 -0.12)">
    <use xlink:href="#DejaVuSans-33"/>
    <use xlink:href="#DejaVuSans-2e" x="63.623047"/>
    <use xlink:href="#DejaVuSans-31" x="95.410156"/>
    <use xlink:href="#DejaVuSans-37" x="159.033203"/>
   </g>
  </g>
  <g id="patch_11">
   <path d="M 357.121688 212.503313 
L 376.721688 212.503313 
L 376.721688 192.903313 
L 357.121688 192.903313 
L 357.121688 212.503313 
z
" clip-path="url(#p0d43c293f4)" style="fill: none; stroke: #cccccc; stroke-linejoin: miter"/>
  </g>
  <g id="line2d_58">
   <path d="M 366.921688 202.703313 
" clip-path="url(#p0d43c293f4)" style="fill: none; stroke: #1f77b4; stroke-width: 1.5; stroke-linecap: square"/>
   <defs>
    <path id="m65189eede4" d="M 0 3.101794 
C 0.822605 3.101794 1.61163 2.77497 2.1933 2.1933 
C 2.77497 1.61163 3.101794 0.822605 3.101794 0 
C 3.101794 -0.822605 2.77497 -1.61163 2.1933 -2.1933 
C 1.61163 -2.77497 0.822605 -3.101794 0 -3.101794 
C -0.822605 -3.101794 -1.61163 -2.77497 -2.1933 -2.1933 
C -2.77497 -1.61163 -3.101794 -0.822605 -3.101794 0 
C -3.101794 0.822605 -2.77497 1.61163 -2.1933 2.1933 
C -1.61163 2.77497 -0.822605 3.101794 0 3.101794 
z
" style="stroke: #a157db; stroke-width: 0.886227"/>
   </defs>
   <g clip-path="url(#p0d43c293f4)">
    <use xlink:href="#m65189eede4" x="366.921688" y="202.703313" style="fill: #a157db; stroke: #a157db; stroke-width: 0.886227"/>
   </g>
  </g>
  <g id="text_23">
   <!-- 3.18 -->
   <g transform="translate(380.025688 206.014563) scale(0.12 -0.12)">
    <defs>
     <path id="DejaVuSans-38" d="M 2034 2216 
Q 1584 2216 1326 1975 
Q 1069 1734 1069 1313 
Q 1069 891 1326 650 
Q 1584 409 2034 409 
Q 2484 409 2743 651 
Q 3003 894 3003 1313 
Q 3003 1734 2745 1975 
Q 2488 2216 2034 2216 
z
M 1403 2484 
Q 997 2584 770 2862 
Q 544 3141 544 3541 
Q 544 4100 942 4425 
Q 1341 4750 2034 4750 
Q 2731 4750 3128 4425 
Q 3525 4100 3525 3541 
Q 3525 3141 3298 2862 
Q 3072 2584 2669 2484 
Q 3125 2378 3379 2068 
Q 3634 1759 3634 1313 
Q 3634 634 3220 271 
Q 2806 -91 2034 -91 
Q 1263 -91 848 271 
Q 434 634 434 1313 
Q 434 1759 690 2068 
Q 947 2378 1403 2484 
z
M 1172 3481 
Q 1172 3119 1398 2916 
Q 1625 2713 2034 2713 
Q 2441 2713 2670 2916 
Q 2900 3119 2900 3481 
Q 2900 3844 2670 4047 
Q 2441 4250 2034 4250 
Q 1625 4250 1398 4047 
Q 1172 3844 1172 3481 
z
" transform="scale(0.015625)"/>
    </defs>
    <use xlink:href="#DejaVuSans-33"/>
    <use xlink:href="#DejaVuSans-2e" x="63.623047"/>
    <use xlink:href="#DejaVuSans-31" x="95.410156"/>
    <use xlink:href="#DejaVuSans-38" x="159.033203"/>
   </g>
  </g>
  <g id="patch_12">
   <path d="M 357.121688 236.103313 
L 376.721688 236.103313 
L 376.721688 216.503313 
L 357.121688 216.503313 
L 357.121688 236.103313 
z
" clip-path="url(#p64bc82a7e4)" style="fill: none; stroke: #cccccc; stroke-linejoin: miter"/>
  </g>
  <g id="line2d_59">
   <path d="M 366.921688 226.303313 
" clip-path="url(#p64bc82a7e4)" style="fill: none; stroke: #1f77b4; stroke-width: 1.5; stroke-linecap: square"/>
   <defs>
    <path id="m5541edecfc" d="M 0 3.101794 
C 0.822605 3.101794 1.61163 2.77497 2.1933 2.1933 
C 2.77497 1.61163 3.101794 0.822605 3.101794 0 
C 3.101794 -0.822605 2.77497 -1.61163 2.1933 -2.1933 
C 1.61163 -2.77497 0.822605 -3.101794 0 -3.101794 
C -0.822605 -3.101794 -1.61163 -2.77497 -2.1933 -2.1933 
C -2.77497 -1.61163 -3.101794 -0.822605 -3.101794 0 
C -3.101794 0.822605 -2.77497 1.61163 -2.1933 2.1933 
C -1.61163 2.77497 -0.822605 3.101794 0 3.101794 
z
" style="stroke: #db57b2; stroke-width: 0.886227"/>
   </defs>
   <g clip-path="url(#p64bc82a7e4)">
    <use xlink:href="#m5541edecfc" x="366.921688" y="226.303313" style="fill: #db57b2; stroke: #db57b2; stroke-width: 0.886227"/>
   </g>
  </g>
  <g id="text_24">
   <!-- 3.19 -->
   <g transform="translate(380.025688 229.614563) scale(0.12 -0.12)">
    <defs>
     <path id="DejaVuSans-39" d="M 703 97 
L 703 672 
Q 941 559 1184 500 
Q 1428 441 1663 441 
Q 2288 441 2617 861 
Q 2947 1281 2994 2138 
Q 2813 1869 2534 1725 
Q 2256 1581 1919 1581 
Q 1219 1581 811 2004 
Q 403 2428 403 3163 
Q 403 3881 828 4315 
Q 1253 4750 1959 4750 
Q 2769 4750 3195 4129 
Q 3622 3509 3622 2328 
Q 3622 1225 3098 567 
Q 2575 -91 1691 -91 
Q 1453 -91 1209 -44 
Q 966 3 703 97 
z
M 1959 2075 
Q 2384 2075 2632 2365 
Q 2881 2656 2881 3163 
Q 2881 3666 2632 3958 
Q 2384 4250 1959 4250 
Q 1534 4250 1286 3958 
Q 1038 3666 1038 3163 
Q 1038 2656 1286 2365 
Q 1534 2075 1959 2075 
z
" transform="scale(0.015625)"/>
    </defs>
    <use xlink:href="#DejaVuSans-33"/>
    <use xlink:href="#DejaVuSans-2e" x="63.623047"/>
    <use xlink:href="#DejaVuSans-31" x="95.410156"/>
    <use xlink:href="#DejaVuSans-39" x="159.033203"/>
   </g>
  </g>
 </g>
 <defs>
  <clipPath id="pd00bc7a526">
   <rect x="67.658188" y="4.608" width="273.6395" height="261.369437"/>
  </clipPath>
  <clipPath id="p5311c6a94d">
   <path d="M 356.121688 71.903313 
L 356.121688 50.303313 
L 377.721688 50.303313 
L 377.721688 71.903313 
"/>
  </clipPath>
  <clipPath id="p0f7ae4b72a">
   <path d="M 356.121688 95.503313 
L 356.121688 73.903313 
L 377.721688 73.903313 
L 377.721688 95.503313 
"/>
  </clipPath>
  <clipPath id="p7e5602067f">
   <path d="M 356.121688 119.103313 
L 356.121688 97.503313 
L 377.721688 97.503313 
L 377.721688 119.103313 
"/>
  </clipPath>
  <clipPath id="p7e184ec6ba">
   <path d="M 356.121688 142.703313 
L 356.121688 121.103313 
L 377.721688 121.103313 
L 377.721688 142.703313 
"/>
  </clipPath>
  <clipPath id="p9fa463083d">
   <path d="M 356.121688 166.303313 
L 356.121688 144.703313 
L 377.721688 144.703313 
L 377.721688 166.303313 
"/>
  </clipPath>
  <clipPath id="p4b4747c790">
   <path d="M 356.121688 189.903313 
L 356.121688 168.303313 
L 377.721688 168.303313 
L 377.721688 189.903313 
"/>
  </clipPath>
  <clipPath id="p0d43c293f4">
   <path d="M 356.121688 213.503313 
L 356.121688 191.903313 
L 377.721688 191.903313 
L 377.721688 213.503313 
"/>
  </clipPath>
  <clipPath id="p64bc82a7e4">
   <path d="M 356.121688 237.103313 
L 356.121688 215.503313 
L 377.721688 215.503313 
L 377.721688 237.103313 
"/>
  </clipPath>
 </defs>
</svg>
